%TF.GenerationSoftware,KiCad,Pcbnew,9.0.0*%
%TF.CreationDate,2025-03-21T22:40:37-06:00*%
%TF.ProjectId,pcb_desgin,7063625f-6465-4736-9769-6e2e6b696361,rev?*%
%TF.SameCoordinates,Original*%
%TF.FileFunction,Copper,L2,Inr*%
%TF.FilePolarity,Positive*%
%FSLAX46Y46*%
G04 Gerber Fmt 4.6, Leading zero omitted, Abs format (unit mm)*
G04 Created by KiCad (PCBNEW 9.0.0) date 2025-03-21 22:40:37*
%MOMM*%
%LPD*%
G01*
G04 APERTURE LIST*
%TA.AperFunction,ComponentPad*%
%ADD10C,2.000000*%
%TD*%
%TA.AperFunction,ComponentPad*%
%ADD11R,1.700000X1.700000*%
%TD*%
%TA.AperFunction,ComponentPad*%
%ADD12O,1.700000X1.700000*%
%TD*%
%TA.AperFunction,ComponentPad*%
%ADD13O,0.890000X1.550000*%
%TD*%
%TA.AperFunction,ComponentPad*%
%ADD14O,1.250000X0.950000*%
%TD*%
%TA.AperFunction,ComponentPad*%
%ADD15R,1.168400X1.168400*%
%TD*%
%TA.AperFunction,ComponentPad*%
%ADD16C,1.168400*%
%TD*%
%TA.AperFunction,ComponentPad*%
%ADD17R,3.000000X3.000000*%
%TD*%
%TA.AperFunction,ComponentPad*%
%ADD18C,3.000000*%
%TD*%
%TA.AperFunction,ViaPad*%
%ADD19C,0.600000*%
%TD*%
G04 APERTURE END LIST*
D10*
%TO.N,/T_RST*%
%TO.C,SW1*%
X94200000Y-35300000D03*
X100700000Y-35300000D03*
%TO.N,GND*%
X94200000Y-39800000D03*
X100700000Y-39800000D03*
%TD*%
D11*
%TO.N,+3.3V*%
%TO.C,J4*%
X114540000Y-82700000D03*
D12*
%TO.N,GND*%
X117080000Y-82700000D03*
%TO.N,/SCL*%
X119620000Y-82700000D03*
%TO.N,/SDA*%
X122160000Y-82700000D03*
%TO.N,/INT*%
X124700000Y-82700000D03*
%TD*%
D11*
%TO.N,GND*%
%TO.C,J3*%
X94400000Y-74500000D03*
D12*
%TO.N,+3.3V*%
X96940000Y-74500000D03*
%TO.N,/SCL*%
X99480000Y-74500000D03*
%TO.N,/SDA*%
X102020000Y-74500000D03*
%TD*%
D13*
%TO.N,Net-(J2-Shield)*%
%TO.C,J2*%
X140300000Y-82300000D03*
D14*
X141300000Y-79600000D03*
X146300000Y-79600000D03*
D13*
X147300000Y-82300000D03*
%TD*%
D15*
%TO.N,unconnected-(J1-NC-Pad1)*%
%TO.C,J1*%
X124300000Y-37830000D03*
D16*
%TO.N,unconnected-(J1-NC-Pad2)*%
X124300000Y-39100000D03*
%TO.N,+3.3V*%
X123030000Y-37830000D03*
%TO.N,/T_JTMS*%
X123030000Y-39100000D03*
%TO.N,GND*%
X121760000Y-37830000D03*
%TO.N,/T_JTCK*%
X121760000Y-39100000D03*
%TO.N,GND*%
X120490000Y-37830000D03*
%TO.N,unconnected-(J1-JTDO{slash}SWO-Pad8)*%
X120490000Y-39100000D03*
%TO.N,unconnected-(J1-JRCLK{slash}NC-Pad9)*%
X119220000Y-37830000D03*
%TO.N,unconnected-(J1-JTDI{slash}NC-Pad10)*%
X119220000Y-39100000D03*
%TO.N,GND*%
X117950000Y-37830000D03*
%TO.N,/T_RST*%
X117950000Y-39100000D03*
%TO.N,/T_VCP_RX*%
X116680000Y-37830000D03*
%TO.N,/T_VCP_TX*%
X116680000Y-39100000D03*
%TD*%
D11*
%TO.N,/Battery*%
%TO.C,J5*%
X128600000Y-82700000D03*
D12*
%TO.N,+3.3V*%
X131140000Y-82700000D03*
%TO.N,/Usb*%
X133680000Y-82700000D03*
%TD*%
D17*
%TO.N,+9V*%
%TO.C,BT1*%
X144200000Y-50850000D03*
D18*
%TO.N,GND*%
X144200000Y-63550000D03*
%TD*%
D19*
%TO.N,GND*%
X117920000Y-35000000D03*
X131400000Y-75800000D03*
X112100000Y-50900000D03*
X147700000Y-75700000D03*
X136400000Y-77000000D03*
X139600000Y-67100000D03*
X136400000Y-58800000D03*
X122220000Y-35000000D03*
X110800000Y-75400000D03*
X120620000Y-35000000D03*
X126000000Y-53200000D03*
%TO.N,/T_RST*%
X110000000Y-39800000D03*
%TO.N,+3.3V*%
X123900000Y-35000000D03*
X108400000Y-65900000D03*
X114100000Y-50900000D03*
X112600000Y-70550000D03*
%TO.N,/SDA*%
X112550000Y-66900000D03*
X108100000Y-71400000D03*
%TO.N,/SCL*%
X112400000Y-68825000D03*
X118075000Y-71000000D03*
%TO.N,/INT*%
X115800000Y-65300000D03*
X110100000Y-65300000D03*
%TD*%
%TA.AperFunction,Conductor*%
%TO.N,GND*%
G36*
X93858935Y-33620185D02*
G01*
X93904690Y-33672989D01*
X93914634Y-33742147D01*
X93885609Y-33805703D01*
X93830215Y-33842431D01*
X93624003Y-33909433D01*
X93413566Y-34016657D01*
X93304550Y-34095862D01*
X93222490Y-34155483D01*
X93222488Y-34155485D01*
X93222487Y-34155485D01*
X93055485Y-34322487D01*
X93055485Y-34322488D01*
X93055483Y-34322490D01*
X93015000Y-34378210D01*
X92916657Y-34513566D01*
X92809433Y-34724003D01*
X92736446Y-34948631D01*
X92699500Y-35181902D01*
X92699500Y-35418097D01*
X92736446Y-35651368D01*
X92809433Y-35875996D01*
X92916657Y-36086433D01*
X93055483Y-36277510D01*
X93222490Y-36444517D01*
X93413567Y-36583343D01*
X93512991Y-36634002D01*
X93624003Y-36690566D01*
X93624005Y-36690566D01*
X93624008Y-36690568D01*
X93744412Y-36729689D01*
X93848631Y-36763553D01*
X94081903Y-36800500D01*
X94081908Y-36800500D01*
X94318097Y-36800500D01*
X94551368Y-36763553D01*
X94587823Y-36751708D01*
X94775992Y-36690568D01*
X94986433Y-36583343D01*
X95177510Y-36444517D01*
X95344517Y-36277510D01*
X95483343Y-36086433D01*
X95590568Y-35875992D01*
X95663553Y-35651368D01*
X95668238Y-35621786D01*
X95700500Y-35418097D01*
X95700500Y-35181902D01*
X95663553Y-34948631D01*
X95604378Y-34766510D01*
X95590568Y-34724008D01*
X95590566Y-34724005D01*
X95590566Y-34724003D01*
X95483342Y-34513566D01*
X95344517Y-34322490D01*
X95177510Y-34155483D01*
X94986433Y-34016657D01*
X94775996Y-33909433D01*
X94569785Y-33842431D01*
X94512110Y-33802993D01*
X94484912Y-33738634D01*
X94496827Y-33669788D01*
X94544071Y-33618312D01*
X94608104Y-33600500D01*
X100291896Y-33600500D01*
X100358935Y-33620185D01*
X100404690Y-33672989D01*
X100414634Y-33742147D01*
X100385609Y-33805703D01*
X100330215Y-33842431D01*
X100124003Y-33909433D01*
X99913566Y-34016657D01*
X99804550Y-34095862D01*
X99722490Y-34155483D01*
X99722488Y-34155485D01*
X99722487Y-34155485D01*
X99555485Y-34322487D01*
X99555485Y-34322488D01*
X99555483Y-34322490D01*
X99515000Y-34378210D01*
X99416657Y-34513566D01*
X99309433Y-34724003D01*
X99236446Y-34948631D01*
X99199500Y-35181902D01*
X99199500Y-35418097D01*
X99236446Y-35651368D01*
X99309433Y-35875996D01*
X99416657Y-36086433D01*
X99555483Y-36277510D01*
X99722490Y-36444517D01*
X99913567Y-36583343D01*
X100012991Y-36634002D01*
X100124003Y-36690566D01*
X100124005Y-36690566D01*
X100124008Y-36690568D01*
X100244412Y-36729689D01*
X100348631Y-36763553D01*
X100581903Y-36800500D01*
X100581908Y-36800500D01*
X100818097Y-36800500D01*
X101051368Y-36763553D01*
X101087823Y-36751708D01*
X101275992Y-36690568D01*
X101486433Y-36583343D01*
X101677510Y-36444517D01*
X101844517Y-36277510D01*
X101983343Y-36086433D01*
X102090568Y-35875992D01*
X102163553Y-35651368D01*
X102168238Y-35621786D01*
X102200500Y-35418097D01*
X102200500Y-35181902D01*
X102163553Y-34948631D01*
X102154625Y-34921153D01*
X123099500Y-34921153D01*
X123099500Y-35078846D01*
X123130261Y-35233489D01*
X123130264Y-35233501D01*
X123190602Y-35379172D01*
X123190609Y-35379185D01*
X123278210Y-35510288D01*
X123278213Y-35510292D01*
X123389707Y-35621786D01*
X123389711Y-35621789D01*
X123520814Y-35709390D01*
X123520827Y-35709397D01*
X123666498Y-35769735D01*
X123666503Y-35769737D01*
X123821153Y-35800499D01*
X123821156Y-35800500D01*
X123821158Y-35800500D01*
X123978844Y-35800500D01*
X123978845Y-35800499D01*
X124133497Y-35769737D01*
X124279179Y-35709394D01*
X124410289Y-35621789D01*
X124521789Y-35510289D01*
X124609394Y-35379179D01*
X124669737Y-35233497D01*
X124700500Y-35078842D01*
X124700500Y-34921158D01*
X124700500Y-34921155D01*
X124700499Y-34921153D01*
X124669738Y-34766510D01*
X124669737Y-34766503D01*
X124652133Y-34724003D01*
X124609397Y-34620827D01*
X124609390Y-34620814D01*
X124521789Y-34489711D01*
X124521786Y-34489707D01*
X124410292Y-34378213D01*
X124410288Y-34378210D01*
X124279185Y-34290609D01*
X124279172Y-34290602D01*
X124133501Y-34230264D01*
X124133489Y-34230261D01*
X123978845Y-34199500D01*
X123978842Y-34199500D01*
X123821158Y-34199500D01*
X123821155Y-34199500D01*
X123666510Y-34230261D01*
X123666498Y-34230264D01*
X123520827Y-34290602D01*
X123520814Y-34290609D01*
X123389711Y-34378210D01*
X123389707Y-34378213D01*
X123278213Y-34489707D01*
X123278210Y-34489711D01*
X123190609Y-34620814D01*
X123190602Y-34620827D01*
X123130264Y-34766498D01*
X123130261Y-34766510D01*
X123099500Y-34921153D01*
X102154625Y-34921153D01*
X102104378Y-34766510D01*
X102090568Y-34724008D01*
X102090566Y-34724005D01*
X102090566Y-34724003D01*
X101983342Y-34513566D01*
X101844517Y-34322490D01*
X101677510Y-34155483D01*
X101486433Y-34016657D01*
X101275996Y-33909433D01*
X101069785Y-33842431D01*
X101012110Y-33802993D01*
X100984912Y-33738634D01*
X100996827Y-33669788D01*
X101044071Y-33618312D01*
X101108104Y-33600500D01*
X148175500Y-33600500D01*
X148242539Y-33620185D01*
X148288294Y-33672989D01*
X148299500Y-33724500D01*
X148299500Y-81355229D01*
X148279815Y-81422268D01*
X148227011Y-81468023D01*
X148157853Y-81477967D01*
X148094297Y-81448942D01*
X148072398Y-81424119D01*
X148034421Y-81367283D01*
X148034415Y-81367275D01*
X147902724Y-81235584D01*
X147902716Y-81235578D01*
X147747864Y-81132109D01*
X147575792Y-81060835D01*
X147575784Y-81060833D01*
X147393127Y-81024500D01*
X147393124Y-81024500D01*
X147206876Y-81024500D01*
X147206873Y-81024500D01*
X147024215Y-81060833D01*
X147024207Y-81060835D01*
X146852136Y-81132109D01*
X146852135Y-81132109D01*
X146697283Y-81235578D01*
X146697275Y-81235584D01*
X146565584Y-81367275D01*
X146565578Y-81367283D01*
X146462109Y-81522135D01*
X146462109Y-81522136D01*
X146390835Y-81694207D01*
X146390833Y-81694215D01*
X146354500Y-81876871D01*
X146354500Y-82723128D01*
X146390833Y-82905784D01*
X146390835Y-82905792D01*
X146462109Y-83077863D01*
X146462109Y-83077864D01*
X146565578Y-83232716D01*
X146565584Y-83232724D01*
X146697275Y-83364415D01*
X146697283Y-83364421D01*
X146852135Y-83467890D01*
X146902534Y-83488766D01*
X147024208Y-83539165D01*
X147206871Y-83575499D01*
X147206874Y-83575500D01*
X147206876Y-83575500D01*
X147393126Y-83575500D01*
X147393127Y-83575499D01*
X147575792Y-83539165D01*
X147747862Y-83467891D01*
X147747863Y-83467890D01*
X147747864Y-83467890D01*
X147837765Y-83407820D01*
X147902721Y-83364418D01*
X148034418Y-83232721D01*
X148072398Y-83175878D01*
X148126009Y-83131075D01*
X148195334Y-83122366D01*
X148258362Y-83152521D01*
X148295081Y-83211963D01*
X148299500Y-83244770D01*
X148299500Y-85475500D01*
X148279815Y-85542539D01*
X148227011Y-85588294D01*
X148175500Y-85599500D01*
X92224500Y-85599500D01*
X92157461Y-85579815D01*
X92111706Y-85527011D01*
X92100500Y-85475500D01*
X92100500Y-81802135D01*
X113189500Y-81802135D01*
X113189500Y-83597870D01*
X113189501Y-83597876D01*
X113195908Y-83657483D01*
X113246202Y-83792328D01*
X113246206Y-83792335D01*
X113332452Y-83907544D01*
X113332455Y-83907547D01*
X113447664Y-83993793D01*
X113447671Y-83993797D01*
X113582517Y-84044091D01*
X113582516Y-84044091D01*
X113589444Y-84044835D01*
X113642127Y-84050500D01*
X115437872Y-84050499D01*
X115497483Y-84044091D01*
X115632331Y-83993796D01*
X115747546Y-83907546D01*
X115833796Y-83792331D01*
X115883002Y-83660401D01*
X115924872Y-83604468D01*
X115990337Y-83580050D01*
X116058610Y-83594901D01*
X116086865Y-83616053D01*
X116200535Y-83729723D01*
X116200540Y-83729727D01*
X116372442Y-83854620D01*
X116561782Y-83951095D01*
X116763871Y-84016757D01*
X116830000Y-84027231D01*
X116830000Y-83133012D01*
X116887007Y-83165925D01*
X117014174Y-83200000D01*
X117145826Y-83200000D01*
X117272993Y-83165925D01*
X117330000Y-83133012D01*
X117330000Y-84027230D01*
X117396126Y-84016757D01*
X117396129Y-84016757D01*
X117598217Y-83951095D01*
X117787557Y-83854620D01*
X117959459Y-83729727D01*
X117959464Y-83729723D01*
X118109723Y-83579464D01*
X118109727Y-83579459D01*
X118234620Y-83407558D01*
X118239232Y-83398507D01*
X118287205Y-83347709D01*
X118355025Y-83330912D01*
X118421161Y-83353447D01*
X118460204Y-83398504D01*
X118464949Y-83407817D01*
X118589890Y-83579786D01*
X118740213Y-83730109D01*
X118912179Y-83855048D01*
X118912181Y-83855049D01*
X118912184Y-83855051D01*
X119101588Y-83951557D01*
X119303757Y-84017246D01*
X119513713Y-84050500D01*
X119513714Y-84050500D01*
X119726286Y-84050500D01*
X119726287Y-84050500D01*
X119936243Y-84017246D01*
X120138412Y-83951557D01*
X120327816Y-83855051D01*
X120414138Y-83792335D01*
X120499786Y-83730109D01*
X120499788Y-83730106D01*
X120499792Y-83730104D01*
X120650104Y-83579792D01*
X120650106Y-83579788D01*
X120650109Y-83579786D01*
X120775048Y-83407820D01*
X120775050Y-83407817D01*
X120775051Y-83407816D01*
X120779514Y-83399054D01*
X120827488Y-83348259D01*
X120895308Y-83331463D01*
X120961444Y-83353999D01*
X121000486Y-83399056D01*
X121004951Y-83407820D01*
X121129890Y-83579786D01*
X121280213Y-83730109D01*
X121452179Y-83855048D01*
X121452181Y-83855049D01*
X121452184Y-83855051D01*
X121641588Y-83951557D01*
X121843757Y-84017246D01*
X122053713Y-84050500D01*
X122053714Y-84050500D01*
X122266286Y-84050500D01*
X122266287Y-84050500D01*
X122476243Y-84017246D01*
X122678412Y-83951557D01*
X122867816Y-83855051D01*
X122954138Y-83792335D01*
X123039786Y-83730109D01*
X123039788Y-83730106D01*
X123039792Y-83730104D01*
X123190104Y-83579792D01*
X123190106Y-83579788D01*
X123190109Y-83579786D01*
X123315048Y-83407820D01*
X123315050Y-83407817D01*
X123315051Y-83407816D01*
X123319514Y-83399054D01*
X123367488Y-83348259D01*
X123435308Y-83331463D01*
X123501444Y-83353999D01*
X123540486Y-83399056D01*
X123544951Y-83407820D01*
X123669890Y-83579786D01*
X123820213Y-83730109D01*
X123992179Y-83855048D01*
X123992181Y-83855049D01*
X123992184Y-83855051D01*
X124181588Y-83951557D01*
X124383757Y-84017246D01*
X124593713Y-84050500D01*
X124593714Y-84050500D01*
X124806286Y-84050500D01*
X124806287Y-84050500D01*
X125016243Y-84017246D01*
X125218412Y-83951557D01*
X125407816Y-83855051D01*
X125494138Y-83792335D01*
X125579786Y-83730109D01*
X125579788Y-83730106D01*
X125579792Y-83730104D01*
X125730104Y-83579792D01*
X125730106Y-83579788D01*
X125730109Y-83579786D01*
X125855048Y-83407820D01*
X125855050Y-83407817D01*
X125855051Y-83407816D01*
X125951557Y-83218412D01*
X126017246Y-83016243D01*
X126050500Y-82806287D01*
X126050500Y-82593713D01*
X126017246Y-82383757D01*
X125951557Y-82181588D01*
X125855051Y-81992184D01*
X125819801Y-81943666D01*
X125767511Y-81871694D01*
X125767508Y-81871691D01*
X125730341Y-81820535D01*
X125730104Y-81820208D01*
X125712031Y-81802135D01*
X127249500Y-81802135D01*
X127249500Y-83597870D01*
X127249501Y-83597876D01*
X127255908Y-83657483D01*
X127306202Y-83792328D01*
X127306206Y-83792335D01*
X127392452Y-83907544D01*
X127392455Y-83907547D01*
X127507664Y-83993793D01*
X127507671Y-83993797D01*
X127642517Y-84044091D01*
X127642516Y-84044091D01*
X127649444Y-84044835D01*
X127702127Y-84050500D01*
X129497872Y-84050499D01*
X129557483Y-84044091D01*
X129692331Y-83993796D01*
X129807546Y-83907546D01*
X129893796Y-83792331D01*
X129942810Y-83660916D01*
X129984681Y-83604984D01*
X130050145Y-83580566D01*
X130118418Y-83595417D01*
X130146673Y-83616569D01*
X130260213Y-83730109D01*
X130432179Y-83855048D01*
X130432181Y-83855049D01*
X130432184Y-83855051D01*
X130621588Y-83951557D01*
X130823757Y-84017246D01*
X131033713Y-84050500D01*
X131033714Y-84050500D01*
X131246286Y-84050500D01*
X131246287Y-84050500D01*
X131456243Y-84017246D01*
X131658412Y-83951557D01*
X131847816Y-83855051D01*
X131934138Y-83792335D01*
X132019786Y-83730109D01*
X132019788Y-83730106D01*
X132019792Y-83730104D01*
X132170104Y-83579792D01*
X132170106Y-83579788D01*
X132170109Y-83579786D01*
X132295048Y-83407820D01*
X132295050Y-83407817D01*
X132295051Y-83407816D01*
X132299514Y-83399054D01*
X132347488Y-83348259D01*
X132415308Y-83331463D01*
X132481444Y-83353999D01*
X132520486Y-83399056D01*
X132524951Y-83407820D01*
X132649890Y-83579786D01*
X132800213Y-83730109D01*
X132972179Y-83855048D01*
X132972181Y-83855049D01*
X132972184Y-83855051D01*
X133161588Y-83951557D01*
X133363757Y-84017246D01*
X133573713Y-84050500D01*
X133573714Y-84050500D01*
X133786286Y-84050500D01*
X133786287Y-84050500D01*
X133996243Y-84017246D01*
X134198412Y-83951557D01*
X134387816Y-83855051D01*
X134474138Y-83792335D01*
X134559786Y-83730109D01*
X134559788Y-83730106D01*
X134559792Y-83730104D01*
X134710104Y-83579792D01*
X134710106Y-83579788D01*
X134710109Y-83579786D01*
X134835048Y-83407820D01*
X134835050Y-83407817D01*
X134835051Y-83407816D01*
X134931557Y-83218412D01*
X134997246Y-83016243D01*
X135030500Y-82806287D01*
X135030500Y-82593713D01*
X134997246Y-82383757D01*
X134931557Y-82181588D01*
X134835051Y-81992184D01*
X134799802Y-81943668D01*
X134799802Y-81943666D01*
X134751273Y-81876871D01*
X139354500Y-81876871D01*
X139354500Y-82723128D01*
X139390833Y-82905784D01*
X139390835Y-82905792D01*
X139462109Y-83077863D01*
X139462109Y-83077864D01*
X139565578Y-83232716D01*
X139565584Y-83232724D01*
X139697275Y-83364415D01*
X139697283Y-83364421D01*
X139852135Y-83467890D01*
X139902534Y-83488766D01*
X140024208Y-83539165D01*
X140206871Y-83575499D01*
X140206874Y-83575500D01*
X140206876Y-83575500D01*
X140393126Y-83575500D01*
X140393127Y-83575499D01*
X140575792Y-83539165D01*
X140747862Y-83467891D01*
X140747863Y-83467890D01*
X140747864Y-83467890D01*
X140837765Y-83407820D01*
X140902721Y-83364418D01*
X141034418Y-83232721D01*
X141137891Y-83077862D01*
X141209165Y-82905792D01*
X141245500Y-82723124D01*
X141245500Y-81876876D01*
X141245500Y-81876873D01*
X141245499Y-81876871D01*
X141234228Y-81820207D01*
X141209165Y-81694208D01*
X141137891Y-81522138D01*
X141137890Y-81522136D01*
X141137890Y-81522135D01*
X141034421Y-81367283D01*
X141034415Y-81367275D01*
X140902724Y-81235584D01*
X140902716Y-81235578D01*
X140747864Y-81132109D01*
X140575792Y-81060835D01*
X140575784Y-81060833D01*
X140393127Y-81024500D01*
X140393124Y-81024500D01*
X140206876Y-81024500D01*
X140206873Y-81024500D01*
X140024215Y-81060833D01*
X140024207Y-81060835D01*
X139852136Y-81132109D01*
X139852135Y-81132109D01*
X139697283Y-81235578D01*
X139697275Y-81235584D01*
X139565584Y-81367275D01*
X139565578Y-81367283D01*
X139462109Y-81522135D01*
X139462109Y-81522136D01*
X139390835Y-81694207D01*
X139390833Y-81694215D01*
X139354500Y-81876871D01*
X134751273Y-81876871D01*
X134710109Y-81820214D01*
X134710105Y-81820209D01*
X134559786Y-81669890D01*
X134387820Y-81544951D01*
X134198414Y-81448444D01*
X134198413Y-81448443D01*
X134198412Y-81448443D01*
X133996243Y-81382754D01*
X133996241Y-81382753D01*
X133996240Y-81382753D01*
X133834957Y-81357208D01*
X133786287Y-81349500D01*
X133573713Y-81349500D01*
X133525042Y-81357208D01*
X133363760Y-81382753D01*
X133161585Y-81448444D01*
X132972179Y-81544951D01*
X132800213Y-81669890D01*
X132649890Y-81820213D01*
X132524949Y-81992182D01*
X132520484Y-82000946D01*
X132472509Y-82051742D01*
X132404688Y-82068536D01*
X132338553Y-82045998D01*
X132299516Y-82000946D01*
X132295050Y-81992182D01*
X132170109Y-81820213D01*
X132019786Y-81669890D01*
X131847820Y-81544951D01*
X131658414Y-81448444D01*
X131658413Y-81448443D01*
X131658412Y-81448443D01*
X131456243Y-81382754D01*
X131456241Y-81382753D01*
X131456240Y-81382753D01*
X131294957Y-81357208D01*
X131246287Y-81349500D01*
X131033713Y-81349500D01*
X130985042Y-81357208D01*
X130823760Y-81382753D01*
X130621585Y-81448444D01*
X130432179Y-81544951D01*
X130260215Y-81669889D01*
X130146673Y-81783431D01*
X130085350Y-81816915D01*
X130015658Y-81811931D01*
X129959725Y-81770059D01*
X129942810Y-81739082D01*
X129893797Y-81607671D01*
X129893793Y-81607664D01*
X129807547Y-81492455D01*
X129807544Y-81492452D01*
X129692335Y-81406206D01*
X129692328Y-81406202D01*
X129557482Y-81355908D01*
X129557483Y-81355908D01*
X129497883Y-81349501D01*
X129497881Y-81349500D01*
X129497873Y-81349500D01*
X129497864Y-81349500D01*
X127702129Y-81349500D01*
X127702123Y-81349501D01*
X127642516Y-81355908D01*
X127507671Y-81406202D01*
X127507664Y-81406206D01*
X127392455Y-81492452D01*
X127392452Y-81492455D01*
X127306206Y-81607664D01*
X127306202Y-81607671D01*
X127255908Y-81742517D01*
X127249501Y-81802116D01*
X127249500Y-81802135D01*
X125712031Y-81802135D01*
X125579792Y-81669896D01*
X125579786Y-81669890D01*
X125407820Y-81544951D01*
X125218414Y-81448444D01*
X125218413Y-81448443D01*
X125218412Y-81448443D01*
X125016243Y-81382754D01*
X125016241Y-81382753D01*
X125016240Y-81382753D01*
X124854957Y-81357208D01*
X124806287Y-81349500D01*
X124593713Y-81349500D01*
X124545042Y-81357208D01*
X124383760Y-81382753D01*
X124181585Y-81448444D01*
X123992179Y-81544951D01*
X123820213Y-81669890D01*
X123669890Y-81820213D01*
X123544949Y-81992182D01*
X123540484Y-82000946D01*
X123492509Y-82051742D01*
X123424688Y-82068536D01*
X123358553Y-82045998D01*
X123319516Y-82000946D01*
X123315050Y-81992182D01*
X123190109Y-81820213D01*
X123039786Y-81669890D01*
X122867820Y-81544951D01*
X122678414Y-81448444D01*
X122678413Y-81448443D01*
X122678412Y-81448443D01*
X122476243Y-81382754D01*
X122476241Y-81382753D01*
X122476240Y-81382753D01*
X122314957Y-81357208D01*
X122266287Y-81349500D01*
X122053713Y-81349500D01*
X122005042Y-81357208D01*
X121843760Y-81382753D01*
X121641585Y-81448444D01*
X121452179Y-81544951D01*
X121280213Y-81669890D01*
X121129890Y-81820213D01*
X121004949Y-81992182D01*
X121000484Y-82000946D01*
X120952509Y-82051742D01*
X120884688Y-82068536D01*
X120818553Y-82045998D01*
X120779516Y-82000946D01*
X120775050Y-81992182D01*
X120650109Y-81820213D01*
X120499786Y-81669890D01*
X120327820Y-81544951D01*
X120138414Y-81448444D01*
X120138413Y-81448443D01*
X120138412Y-81448443D01*
X119936243Y-81382754D01*
X119936241Y-81382753D01*
X119936240Y-81382753D01*
X119774957Y-81357208D01*
X119726287Y-81349500D01*
X119513713Y-81349500D01*
X119465042Y-81357208D01*
X119303760Y-81382753D01*
X119101585Y-81448444D01*
X118912179Y-81544951D01*
X118740213Y-81669890D01*
X118589890Y-81820213D01*
X118464949Y-81992182D01*
X118460202Y-82001499D01*
X118412227Y-82052293D01*
X118344405Y-82069087D01*
X118278271Y-82046548D01*
X118239234Y-82001495D01*
X118234622Y-81992444D01*
X118109727Y-81820540D01*
X118109723Y-81820535D01*
X117959464Y-81670276D01*
X117959459Y-81670272D01*
X117787557Y-81545379D01*
X117598215Y-81448903D01*
X117396124Y-81383241D01*
X117330000Y-81372768D01*
X117330000Y-82266988D01*
X117272993Y-82234075D01*
X117145826Y-82200000D01*
X117014174Y-82200000D01*
X116887007Y-82234075D01*
X116830000Y-82266988D01*
X116830000Y-81372768D01*
X116829999Y-81372768D01*
X116763875Y-81383241D01*
X116561784Y-81448903D01*
X116372442Y-81545379D01*
X116200541Y-81670271D01*
X116086865Y-81783947D01*
X116025542Y-81817431D01*
X115955850Y-81812447D01*
X115899917Y-81770575D01*
X115883002Y-81739598D01*
X115866075Y-81694215D01*
X115833796Y-81607669D01*
X115833795Y-81607668D01*
X115833793Y-81607664D01*
X115747547Y-81492455D01*
X115747544Y-81492452D01*
X115632335Y-81406206D01*
X115632328Y-81406202D01*
X115497482Y-81355908D01*
X115497483Y-81355908D01*
X115437883Y-81349501D01*
X115437881Y-81349500D01*
X115437873Y-81349500D01*
X115437864Y-81349500D01*
X113642129Y-81349500D01*
X113642123Y-81349501D01*
X113582516Y-81355908D01*
X113447671Y-81406202D01*
X113447664Y-81406206D01*
X113332455Y-81492452D01*
X113332452Y-81492455D01*
X113246206Y-81607664D01*
X113246202Y-81607671D01*
X113195908Y-81742517D01*
X113189501Y-81802116D01*
X113189500Y-81802135D01*
X92100500Y-81802135D01*
X92100500Y-79503917D01*
X140174500Y-79503917D01*
X140174500Y-79696082D01*
X140211986Y-79884535D01*
X140211989Y-79884547D01*
X140285520Y-80062068D01*
X140285521Y-80062070D01*
X140392279Y-80221844D01*
X140392282Y-80221848D01*
X140528151Y-80357717D01*
X140528155Y-80357720D01*
X140687927Y-80464477D01*
X140687928Y-80464477D01*
X140687929Y-80464478D01*
X140687931Y-80464479D01*
X140865452Y-80538010D01*
X140865457Y-80538012D01*
X141053917Y-80575499D01*
X141053920Y-80575500D01*
X141053922Y-80575500D01*
X141546080Y-80575500D01*
X141546081Y-80575499D01*
X141734543Y-80538012D01*
X141912073Y-80464477D01*
X142071845Y-80357720D01*
X142207720Y-80221845D01*
X142314477Y-80062073D01*
X142388012Y-79884543D01*
X142425500Y-79696078D01*
X142425500Y-79503922D01*
X142425500Y-79503919D01*
X142425499Y-79503917D01*
X145174500Y-79503917D01*
X145174500Y-79696082D01*
X145211986Y-79884535D01*
X145211989Y-79884547D01*
X145285520Y-80062068D01*
X145285521Y-80062070D01*
X145392279Y-80221844D01*
X145392282Y-80221848D01*
X145528151Y-80357717D01*
X145528155Y-80357720D01*
X145687927Y-80464477D01*
X145687928Y-80464477D01*
X145687929Y-80464478D01*
X145687931Y-80464479D01*
X145865452Y-80538010D01*
X145865457Y-80538012D01*
X146053917Y-80575499D01*
X146053920Y-80575500D01*
X146053922Y-80575500D01*
X146546080Y-80575500D01*
X146546081Y-80575499D01*
X146734543Y-80538012D01*
X146912073Y-80464477D01*
X147071845Y-80357720D01*
X147207720Y-80221845D01*
X147314477Y-80062073D01*
X147388012Y-79884543D01*
X147425500Y-79696078D01*
X147425500Y-79503922D01*
X147425500Y-79503919D01*
X147425499Y-79503917D01*
X147388013Y-79315464D01*
X147388012Y-79315457D01*
X147314477Y-79137927D01*
X147207720Y-78978155D01*
X147207717Y-78978151D01*
X147071848Y-78842282D01*
X147071844Y-78842279D01*
X146912070Y-78735521D01*
X146912068Y-78735520D01*
X146734547Y-78661989D01*
X146734535Y-78661986D01*
X146546081Y-78624500D01*
X146546078Y-78624500D01*
X146053922Y-78624500D01*
X146053919Y-78624500D01*
X145865464Y-78661986D01*
X145865452Y-78661989D01*
X145687931Y-78735520D01*
X145687929Y-78735521D01*
X145528155Y-78842279D01*
X145528151Y-78842282D01*
X145392282Y-78978151D01*
X145392279Y-78978155D01*
X145285521Y-79137929D01*
X145285520Y-79137931D01*
X145211989Y-79315452D01*
X145211986Y-79315464D01*
X145174500Y-79503917D01*
X142425499Y-79503917D01*
X142388013Y-79315464D01*
X142388012Y-79315457D01*
X142314477Y-79137927D01*
X142207720Y-78978155D01*
X142207717Y-78978151D01*
X142071848Y-78842282D01*
X142071844Y-78842279D01*
X141912070Y-78735521D01*
X141912068Y-78735520D01*
X141734547Y-78661989D01*
X141734535Y-78661986D01*
X141546081Y-78624500D01*
X141546078Y-78624500D01*
X141053922Y-78624500D01*
X141053919Y-78624500D01*
X140865464Y-78661986D01*
X140865452Y-78661989D01*
X140687931Y-78735520D01*
X140687929Y-78735521D01*
X140528155Y-78842279D01*
X140528151Y-78842282D01*
X140392282Y-78978151D01*
X140392279Y-78978155D01*
X140285521Y-79137929D01*
X140285520Y-79137931D01*
X140211989Y-79315452D01*
X140211986Y-79315464D01*
X140174500Y-79503917D01*
X92100500Y-79503917D01*
X92100500Y-73602155D01*
X93050000Y-73602155D01*
X93050000Y-74250000D01*
X93966988Y-74250000D01*
X93934075Y-74307007D01*
X93900000Y-74434174D01*
X93900000Y-74565826D01*
X93934075Y-74692993D01*
X93966988Y-74750000D01*
X93050000Y-74750000D01*
X93050000Y-75397844D01*
X93056401Y-75457372D01*
X93056403Y-75457379D01*
X93106645Y-75592086D01*
X93106649Y-75592093D01*
X93192809Y-75707187D01*
X93192812Y-75707190D01*
X93307906Y-75793350D01*
X93307913Y-75793354D01*
X93442620Y-75843596D01*
X93442627Y-75843598D01*
X93502155Y-75849999D01*
X93502172Y-75850000D01*
X94150000Y-75850000D01*
X94150000Y-74933012D01*
X94207007Y-74965925D01*
X94334174Y-75000000D01*
X94465826Y-75000000D01*
X94592993Y-74965925D01*
X94650000Y-74933012D01*
X94650000Y-75850000D01*
X95297828Y-75850000D01*
X95297844Y-75849999D01*
X95357372Y-75843598D01*
X95357379Y-75843596D01*
X95492086Y-75793354D01*
X95492093Y-75793350D01*
X95607187Y-75707190D01*
X95607190Y-75707187D01*
X95693350Y-75592093D01*
X95693354Y-75592086D01*
X95742422Y-75460529D01*
X95784293Y-75404595D01*
X95849757Y-75380178D01*
X95918030Y-75395030D01*
X95946285Y-75416181D01*
X96060213Y-75530109D01*
X96232179Y-75655048D01*
X96232181Y-75655049D01*
X96232184Y-75655051D01*
X96421588Y-75751557D01*
X96623757Y-75817246D01*
X96833713Y-75850500D01*
X96833714Y-75850500D01*
X97046286Y-75850500D01*
X97046287Y-75850500D01*
X97256243Y-75817246D01*
X97458412Y-75751557D01*
X97647816Y-75655051D01*
X97734471Y-75592093D01*
X97819786Y-75530109D01*
X97819788Y-75530106D01*
X97819792Y-75530104D01*
X97970104Y-75379792D01*
X97970106Y-75379788D01*
X97970109Y-75379786D01*
X98095048Y-75207820D01*
X98095047Y-75207820D01*
X98095051Y-75207816D01*
X98099514Y-75199054D01*
X98147488Y-75148259D01*
X98215308Y-75131463D01*
X98281444Y-75153999D01*
X98320486Y-75199056D01*
X98324951Y-75207820D01*
X98449890Y-75379786D01*
X98600213Y-75530109D01*
X98772179Y-75655048D01*
X98772181Y-75655049D01*
X98772184Y-75655051D01*
X98961588Y-75751557D01*
X99163757Y-75817246D01*
X99373713Y-75850500D01*
X99373714Y-75850500D01*
X99586286Y-75850500D01*
X99586287Y-75850500D01*
X99796243Y-75817246D01*
X99998412Y-75751557D01*
X100187816Y-75655051D01*
X100274471Y-75592093D01*
X100359786Y-75530109D01*
X100359788Y-75530106D01*
X100359792Y-75530104D01*
X100510104Y-75379792D01*
X100510106Y-75379788D01*
X100510109Y-75379786D01*
X100635048Y-75207820D01*
X100635047Y-75207820D01*
X100635051Y-75207816D01*
X100639514Y-75199054D01*
X100687488Y-75148259D01*
X100755308Y-75131463D01*
X100821444Y-75153999D01*
X100860486Y-75199056D01*
X100864951Y-75207820D01*
X100989890Y-75379786D01*
X101140213Y-75530109D01*
X101312179Y-75655048D01*
X101312181Y-75655049D01*
X101312184Y-75655051D01*
X101501588Y-75751557D01*
X101703757Y-75817246D01*
X101913713Y-75850500D01*
X101913714Y-75850500D01*
X102126286Y-75850500D01*
X102126287Y-75850500D01*
X102336243Y-75817246D01*
X102538412Y-75751557D01*
X102727816Y-75655051D01*
X102814471Y-75592093D01*
X102899786Y-75530109D01*
X102899788Y-75530106D01*
X102899792Y-75530104D01*
X103050104Y-75379792D01*
X103050106Y-75379788D01*
X103050109Y-75379786D01*
X103175048Y-75207820D01*
X103175047Y-75207820D01*
X103175051Y-75207816D01*
X103271557Y-75018412D01*
X103337246Y-74816243D01*
X103370500Y-74606287D01*
X103370500Y-74393713D01*
X103337246Y-74183757D01*
X103271557Y-73981588D01*
X103175051Y-73792184D01*
X103175049Y-73792181D01*
X103175048Y-73792179D01*
X103050109Y-73620213D01*
X102899786Y-73469890D01*
X102727820Y-73344951D01*
X102538414Y-73248444D01*
X102538413Y-73248443D01*
X102538412Y-73248443D01*
X102336243Y-73182754D01*
X102336241Y-73182753D01*
X102336240Y-73182753D01*
X102174957Y-73157208D01*
X102126287Y-73149500D01*
X101913713Y-73149500D01*
X101865042Y-73157208D01*
X101703760Y-73182753D01*
X101501585Y-73248444D01*
X101312179Y-73344951D01*
X101140213Y-73469890D01*
X100989890Y-73620213D01*
X100864949Y-73792182D01*
X100860484Y-73800946D01*
X100812509Y-73851742D01*
X100744688Y-73868536D01*
X100678553Y-73845998D01*
X100639516Y-73800946D01*
X100635050Y-73792182D01*
X100510109Y-73620213D01*
X100359786Y-73469890D01*
X100187820Y-73344951D01*
X99998414Y-73248444D01*
X99998413Y-73248443D01*
X99998412Y-73248443D01*
X99796243Y-73182754D01*
X99796241Y-73182753D01*
X99796240Y-73182753D01*
X99634957Y-73157208D01*
X99586287Y-73149500D01*
X99373713Y-73149500D01*
X99325042Y-73157208D01*
X99163760Y-73182753D01*
X98961585Y-73248444D01*
X98772179Y-73344951D01*
X98600213Y-73469890D01*
X98449890Y-73620213D01*
X98324949Y-73792182D01*
X98320484Y-73800946D01*
X98272509Y-73851742D01*
X98204688Y-73868536D01*
X98138553Y-73845998D01*
X98099516Y-73800946D01*
X98095050Y-73792182D01*
X97970109Y-73620213D01*
X97819786Y-73469890D01*
X97647820Y-73344951D01*
X97458414Y-73248444D01*
X97458413Y-73248443D01*
X97458412Y-73248443D01*
X97256243Y-73182754D01*
X97256241Y-73182753D01*
X97256240Y-73182753D01*
X97094957Y-73157208D01*
X97046287Y-73149500D01*
X96833713Y-73149500D01*
X96785042Y-73157208D01*
X96623760Y-73182753D01*
X96421585Y-73248444D01*
X96232179Y-73344951D01*
X96060215Y-73469889D01*
X95946285Y-73583819D01*
X95884962Y-73617303D01*
X95815270Y-73612319D01*
X95759337Y-73570447D01*
X95742422Y-73539470D01*
X95693354Y-73407913D01*
X95693350Y-73407906D01*
X95607190Y-73292812D01*
X95607187Y-73292809D01*
X95492093Y-73206649D01*
X95492086Y-73206645D01*
X95357379Y-73156403D01*
X95357372Y-73156401D01*
X95297844Y-73150000D01*
X94650000Y-73150000D01*
X94650000Y-74066988D01*
X94592993Y-74034075D01*
X94465826Y-74000000D01*
X94334174Y-74000000D01*
X94207007Y-74034075D01*
X94150000Y-74066988D01*
X94150000Y-73150000D01*
X93502155Y-73150000D01*
X93442627Y-73156401D01*
X93442620Y-73156403D01*
X93307913Y-73206645D01*
X93307906Y-73206649D01*
X93192812Y-73292809D01*
X93192809Y-73292812D01*
X93106649Y-73407906D01*
X93106645Y-73407913D01*
X93056403Y-73542620D01*
X93056401Y-73542627D01*
X93050000Y-73602155D01*
X92100500Y-73602155D01*
X92100500Y-71321153D01*
X107299500Y-71321153D01*
X107299500Y-71478846D01*
X107330261Y-71633489D01*
X107330264Y-71633501D01*
X107390602Y-71779172D01*
X107390609Y-71779185D01*
X107478210Y-71910288D01*
X107478213Y-71910292D01*
X107589707Y-72021786D01*
X107589711Y-72021789D01*
X107720814Y-72109390D01*
X107720827Y-72109397D01*
X107866498Y-72169735D01*
X107866503Y-72169737D01*
X108021153Y-72200499D01*
X108021156Y-72200500D01*
X108021158Y-72200500D01*
X108178844Y-72200500D01*
X108178845Y-72200499D01*
X108333497Y-72169737D01*
X108479179Y-72109394D01*
X108610289Y-72021789D01*
X108721789Y-71910289D01*
X108809394Y-71779179D01*
X108869737Y-71633497D01*
X108900500Y-71478842D01*
X108900500Y-71321158D01*
X108900500Y-71321155D01*
X108900499Y-71321153D01*
X108870788Y-71171789D01*
X108869737Y-71166503D01*
X108833427Y-71078842D01*
X108809397Y-71020827D01*
X108809390Y-71020814D01*
X108721789Y-70889711D01*
X108721786Y-70889707D01*
X108610292Y-70778213D01*
X108610288Y-70778210D01*
X108479185Y-70690609D01*
X108479172Y-70690602D01*
X108333501Y-70630264D01*
X108333489Y-70630261D01*
X108178845Y-70599500D01*
X108178842Y-70599500D01*
X108021158Y-70599500D01*
X108021155Y-70599500D01*
X107866510Y-70630261D01*
X107866498Y-70630264D01*
X107720827Y-70690602D01*
X107720814Y-70690609D01*
X107589711Y-70778210D01*
X107589707Y-70778213D01*
X107478213Y-70889707D01*
X107478210Y-70889711D01*
X107390609Y-71020814D01*
X107390602Y-71020827D01*
X107330264Y-71166498D01*
X107330261Y-71166510D01*
X107299500Y-71321153D01*
X92100500Y-71321153D01*
X92100500Y-68177973D01*
X103749500Y-68177973D01*
X103749500Y-68422027D01*
X103787679Y-68663076D01*
X103863096Y-68895185D01*
X103946309Y-69058501D01*
X103973896Y-69112642D01*
X104117339Y-69310076D01*
X104117343Y-69310081D01*
X104289918Y-69482656D01*
X104289923Y-69482660D01*
X104444182Y-69594735D01*
X104487361Y-69626106D01*
X104704815Y-69736904D01*
X104936924Y-69812321D01*
X105177973Y-69850500D01*
X105177974Y-69850500D01*
X105422026Y-69850500D01*
X105422027Y-69850500D01*
X105663076Y-69812321D01*
X105895185Y-69736904D01*
X106112639Y-69626106D01*
X106310083Y-69482655D01*
X106482655Y-69310083D01*
X106626106Y-69112639D01*
X106736904Y-68895185D01*
X106785328Y-68746153D01*
X111599500Y-68746153D01*
X111599500Y-68903846D01*
X111630261Y-69058489D01*
X111630264Y-69058501D01*
X111690602Y-69204172D01*
X111690609Y-69204185D01*
X111778210Y-69335288D01*
X111778213Y-69335292D01*
X111889707Y-69446786D01*
X111889711Y-69446789D01*
X112020814Y-69534390D01*
X112020827Y-69534397D01*
X112166498Y-69594735D01*
X112166503Y-69594737D01*
X112203289Y-69602054D01*
X112265198Y-69634438D01*
X112299773Y-69695153D01*
X112296034Y-69764923D01*
X112255168Y-69821595D01*
X112226556Y-69838229D01*
X112220831Y-69840600D01*
X112220814Y-69840609D01*
X112089711Y-69928210D01*
X112089707Y-69928213D01*
X111978213Y-70039707D01*
X111978210Y-70039711D01*
X111890609Y-70170814D01*
X111890602Y-70170827D01*
X111830264Y-70316498D01*
X111830261Y-70316510D01*
X111799500Y-70471153D01*
X111799500Y-70628846D01*
X111830261Y-70783489D01*
X111830264Y-70783501D01*
X111890602Y-70929172D01*
X111890609Y-70929185D01*
X111978210Y-71060288D01*
X111978213Y-71060292D01*
X112089707Y-71171786D01*
X112089711Y-71171789D01*
X112220814Y-71259390D01*
X112220827Y-71259397D01*
X112366498Y-71319735D01*
X112366503Y-71319737D01*
X112521153Y-71350499D01*
X112521156Y-71350500D01*
X112521158Y-71350500D01*
X112678844Y-71350500D01*
X112678845Y-71350499D01*
X112833497Y-71319737D01*
X112979179Y-71259394D01*
X113110289Y-71171789D01*
X113221789Y-71060289D01*
X113309394Y-70929179D01*
X113309395Y-70929176D01*
X113309397Y-70929173D01*
X113312719Y-70921153D01*
X117274500Y-70921153D01*
X117274500Y-71078846D01*
X117305261Y-71233489D01*
X117305264Y-71233501D01*
X117365602Y-71379172D01*
X117365609Y-71379185D01*
X117453210Y-71510288D01*
X117453213Y-71510292D01*
X117564707Y-71621786D01*
X117564711Y-71621789D01*
X117695814Y-71709390D01*
X117695827Y-71709397D01*
X117841498Y-71769735D01*
X117841503Y-71769737D01*
X117996153Y-71800499D01*
X117996156Y-71800500D01*
X117996158Y-71800500D01*
X118153844Y-71800500D01*
X118153845Y-71800499D01*
X118308497Y-71769737D01*
X118454179Y-71709394D01*
X118585289Y-71621789D01*
X118696789Y-71510289D01*
X118784394Y-71379179D01*
X118844737Y-71233497D01*
X118875500Y-71078842D01*
X118875500Y-70921158D01*
X118875500Y-70921155D01*
X118875499Y-70921153D01*
X118848117Y-70783497D01*
X118844737Y-70766503D01*
X118813298Y-70690602D01*
X118784397Y-70620827D01*
X118784390Y-70620814D01*
X118696789Y-70489711D01*
X118696786Y-70489707D01*
X118585292Y-70378213D01*
X118585288Y-70378210D01*
X118454185Y-70290609D01*
X118454172Y-70290602D01*
X118308501Y-70230264D01*
X118308489Y-70230261D01*
X118153845Y-70199500D01*
X118153842Y-70199500D01*
X117996158Y-70199500D01*
X117996155Y-70199500D01*
X117841510Y-70230261D01*
X117841498Y-70230264D01*
X117695827Y-70290602D01*
X117695814Y-70290609D01*
X117564711Y-70378210D01*
X117564707Y-70378213D01*
X117453213Y-70489707D01*
X117453210Y-70489711D01*
X117365609Y-70620814D01*
X117365602Y-70620827D01*
X117305264Y-70766498D01*
X117305261Y-70766510D01*
X117274500Y-70921153D01*
X113312719Y-70921153D01*
X113334895Y-70867614D01*
X113334895Y-70867613D01*
X113369737Y-70783497D01*
X113400500Y-70628842D01*
X113400500Y-70471158D01*
X113400500Y-70471155D01*
X113400499Y-70471153D01*
X113382012Y-70378213D01*
X113369737Y-70316503D01*
X113369735Y-70316498D01*
X113309397Y-70170827D01*
X113309390Y-70170814D01*
X113221789Y-70039711D01*
X113221786Y-70039707D01*
X113110292Y-69928213D01*
X113110288Y-69928210D01*
X112979185Y-69840609D01*
X112979172Y-69840602D01*
X112833501Y-69780264D01*
X112833491Y-69780261D01*
X112796710Y-69772945D01*
X112734799Y-69740560D01*
X112700225Y-69679844D01*
X112703966Y-69610074D01*
X112744832Y-69553403D01*
X112773455Y-69536765D01*
X112779174Y-69534396D01*
X112779173Y-69534396D01*
X112779179Y-69534394D01*
X112910289Y-69446789D01*
X113021789Y-69335289D01*
X113109394Y-69204179D01*
X113169737Y-69058497D01*
X113200500Y-68903842D01*
X113200500Y-68746158D01*
X113200500Y-68746155D01*
X113200499Y-68746153D01*
X113183973Y-68663072D01*
X113169737Y-68591503D01*
X113169735Y-68591498D01*
X113109397Y-68445827D01*
X113109390Y-68445814D01*
X113021789Y-68314711D01*
X113021786Y-68314707D01*
X112910292Y-68203213D01*
X112910288Y-68203210D01*
X112872518Y-68177973D01*
X131749500Y-68177973D01*
X131749500Y-68422027D01*
X131787679Y-68663076D01*
X131863096Y-68895185D01*
X131946309Y-69058501D01*
X131973896Y-69112642D01*
X132117339Y-69310076D01*
X132117343Y-69310081D01*
X132289918Y-69482656D01*
X132289923Y-69482660D01*
X132444182Y-69594735D01*
X132487361Y-69626106D01*
X132704815Y-69736904D01*
X132936924Y-69812321D01*
X133177973Y-69850500D01*
X133177974Y-69850500D01*
X133422026Y-69850500D01*
X133422027Y-69850500D01*
X133663076Y-69812321D01*
X133895185Y-69736904D01*
X134112639Y-69626106D01*
X134310083Y-69482655D01*
X134482655Y-69310083D01*
X134626106Y-69112639D01*
X134736904Y-68895185D01*
X134812321Y-68663076D01*
X134850500Y-68422027D01*
X134850500Y-68177973D01*
X134812321Y-67936924D01*
X134736904Y-67704815D01*
X134626106Y-67487361D01*
X134570110Y-67410289D01*
X134482660Y-67289923D01*
X134482656Y-67289918D01*
X134310081Y-67117343D01*
X134310076Y-67117339D01*
X134112642Y-66973896D01*
X134112641Y-66973895D01*
X134112639Y-66973894D01*
X133895185Y-66863096D01*
X133663076Y-66787679D01*
X133663074Y-66787678D01*
X133663072Y-66787678D01*
X133494769Y-66761021D01*
X133422027Y-66749500D01*
X133177973Y-66749500D01*
X133122093Y-66758350D01*
X132936927Y-66787678D01*
X132704812Y-66863097D01*
X132487357Y-66973896D01*
X132289923Y-67117339D01*
X132289918Y-67117343D01*
X132117343Y-67289918D01*
X132117339Y-67289923D01*
X131973896Y-67487357D01*
X131863097Y-67704812D01*
X131787678Y-67936927D01*
X131768935Y-68055264D01*
X131749500Y-68177973D01*
X112872518Y-68177973D01*
X112779185Y-68115609D01*
X112779172Y-68115602D01*
X112633501Y-68055264D01*
X112633489Y-68055261D01*
X112478845Y-68024500D01*
X112478842Y-68024500D01*
X112321158Y-68024500D01*
X112321155Y-68024500D01*
X112166510Y-68055261D01*
X112166498Y-68055264D01*
X112020827Y-68115602D01*
X112020814Y-68115609D01*
X111889711Y-68203210D01*
X111889707Y-68203213D01*
X111778213Y-68314707D01*
X111778210Y-68314711D01*
X111690609Y-68445814D01*
X111690602Y-68445827D01*
X111630264Y-68591498D01*
X111630261Y-68591510D01*
X111599500Y-68746153D01*
X106785328Y-68746153D01*
X106812321Y-68663076D01*
X106850500Y-68422027D01*
X106850500Y-68177973D01*
X106812321Y-67936924D01*
X106736904Y-67704815D01*
X106626106Y-67487361D01*
X106570110Y-67410289D01*
X106482660Y-67289923D01*
X106482656Y-67289918D01*
X106310081Y-67117343D01*
X106310076Y-67117339D01*
X106112642Y-66973896D01*
X106112641Y-66973895D01*
X106112639Y-66973894D01*
X105895185Y-66863096D01*
X105766098Y-66821153D01*
X111749500Y-66821153D01*
X111749500Y-66978846D01*
X111780261Y-67133489D01*
X111780264Y-67133501D01*
X111840602Y-67279172D01*
X111840609Y-67279185D01*
X111928210Y-67410288D01*
X111928213Y-67410292D01*
X112039707Y-67521786D01*
X112039711Y-67521789D01*
X112170814Y-67609390D01*
X112170827Y-67609397D01*
X112316498Y-67669735D01*
X112316503Y-67669737D01*
X112471153Y-67700499D01*
X112471156Y-67700500D01*
X112471158Y-67700500D01*
X112628844Y-67700500D01*
X112628845Y-67700499D01*
X112783497Y-67669737D01*
X112929179Y-67609394D01*
X113060289Y-67521789D01*
X113171789Y-67410289D01*
X113259394Y-67279179D01*
X113319737Y-67133497D01*
X113350500Y-66978842D01*
X113350500Y-66821158D01*
X113350500Y-66821155D01*
X113350499Y-66821153D01*
X113319737Y-66666503D01*
X113259794Y-66521786D01*
X113259397Y-66520827D01*
X113259390Y-66520814D01*
X113171789Y-66389711D01*
X113171786Y-66389707D01*
X113060292Y-66278213D01*
X113060288Y-66278210D01*
X112929185Y-66190609D01*
X112929172Y-66190602D01*
X112783501Y-66130264D01*
X112783489Y-66130261D01*
X112628845Y-66099500D01*
X112628842Y-66099500D01*
X112471158Y-66099500D01*
X112471155Y-66099500D01*
X112316510Y-66130261D01*
X112316498Y-66130264D01*
X112170827Y-66190602D01*
X112170814Y-66190609D01*
X112039711Y-66278210D01*
X112039707Y-66278213D01*
X111928213Y-66389707D01*
X111928210Y-66389711D01*
X111840609Y-66520814D01*
X111840602Y-66520827D01*
X111780264Y-66666498D01*
X111780261Y-66666510D01*
X111749500Y-66821153D01*
X105766098Y-66821153D01*
X105663076Y-66787679D01*
X105663074Y-66787678D01*
X105663072Y-66787678D01*
X105494769Y-66761021D01*
X105422027Y-66749500D01*
X105177973Y-66749500D01*
X105122093Y-66758350D01*
X104936927Y-66787678D01*
X104704812Y-66863097D01*
X104487357Y-66973896D01*
X104289923Y-67117339D01*
X104289918Y-67117343D01*
X104117343Y-67289918D01*
X104117339Y-67289923D01*
X103973896Y-67487357D01*
X103863097Y-67704812D01*
X103787678Y-67936927D01*
X103768935Y-68055264D01*
X103749500Y-68177973D01*
X92100500Y-68177973D01*
X92100500Y-65821153D01*
X107599500Y-65821153D01*
X107599500Y-65978846D01*
X107630261Y-66133489D01*
X107630264Y-66133501D01*
X107690602Y-66279172D01*
X107690609Y-66279185D01*
X107778210Y-66410288D01*
X107778213Y-66410292D01*
X107889707Y-66521786D01*
X107889711Y-66521789D01*
X108020814Y-66609390D01*
X108020827Y-66609397D01*
X108158683Y-66666498D01*
X108166503Y-66669737D01*
X108321153Y-66700499D01*
X108321156Y-66700500D01*
X108321158Y-66700500D01*
X108478844Y-66700500D01*
X108478845Y-66700499D01*
X108489179Y-66698443D01*
X108514287Y-66693450D01*
X108514292Y-66693449D01*
X108599800Y-66676439D01*
X108633497Y-66669737D01*
X108779179Y-66609394D01*
X108910289Y-66521789D01*
X109021789Y-66410289D01*
X109109394Y-66279179D01*
X109169737Y-66133497D01*
X109200500Y-65978842D01*
X109200500Y-65821158D01*
X109200500Y-65821155D01*
X109199903Y-65815093D01*
X109202266Y-65814860D01*
X109207531Y-65755753D01*
X109250371Y-65700558D01*
X109316251Y-65677286D01*
X109384255Y-65693325D01*
X109426042Y-65732214D01*
X109478210Y-65810288D01*
X109478213Y-65810292D01*
X109589707Y-65921786D01*
X109589711Y-65921789D01*
X109720814Y-66009390D01*
X109720827Y-66009397D01*
X109866498Y-66069735D01*
X109866503Y-66069737D01*
X110016131Y-66099500D01*
X110021153Y-66100499D01*
X110021156Y-66100500D01*
X110021158Y-66100500D01*
X110178844Y-66100500D01*
X110178845Y-66100499D01*
X110333497Y-66069737D01*
X110479179Y-66009394D01*
X110610289Y-65921789D01*
X110721789Y-65810289D01*
X110809394Y-65679179D01*
X110869737Y-65533497D01*
X110900500Y-65378842D01*
X110900500Y-65221158D01*
X110900500Y-65221155D01*
X110900499Y-65221153D01*
X114999500Y-65221153D01*
X114999500Y-65378846D01*
X115030261Y-65533489D01*
X115030264Y-65533501D01*
X115090602Y-65679172D01*
X115090609Y-65679185D01*
X115178210Y-65810288D01*
X115178213Y-65810292D01*
X115289707Y-65921786D01*
X115289711Y-65921789D01*
X115420814Y-66009390D01*
X115420827Y-66009397D01*
X115566498Y-66069735D01*
X115566503Y-66069737D01*
X115716131Y-66099500D01*
X115721153Y-66100499D01*
X115721156Y-66100500D01*
X115721158Y-66100500D01*
X115878844Y-66100500D01*
X115878845Y-66100499D01*
X116033497Y-66069737D01*
X116179179Y-66009394D01*
X116310289Y-65921789D01*
X116421789Y-65810289D01*
X116509394Y-65679179D01*
X116569737Y-65533497D01*
X116600500Y-65378842D01*
X116600500Y-65221158D01*
X116600500Y-65221155D01*
X116577625Y-65106157D01*
X116577625Y-65106156D01*
X116569738Y-65066510D01*
X116569737Y-65066503D01*
X116569735Y-65066498D01*
X116509397Y-64920827D01*
X116509390Y-64920814D01*
X116421789Y-64789711D01*
X116421786Y-64789707D01*
X116310292Y-64678213D01*
X116310288Y-64678210D01*
X116179185Y-64590609D01*
X116179172Y-64590602D01*
X116033501Y-64530264D01*
X116033489Y-64530261D01*
X115878845Y-64499500D01*
X115878842Y-64499500D01*
X115721158Y-64499500D01*
X115721155Y-64499500D01*
X115566510Y-64530261D01*
X115566498Y-64530264D01*
X115420827Y-64590602D01*
X115420814Y-64590609D01*
X115289711Y-64678210D01*
X115289707Y-64678213D01*
X115178213Y-64789707D01*
X115178210Y-64789711D01*
X115090609Y-64920814D01*
X115090602Y-64920827D01*
X115030264Y-65066498D01*
X115030261Y-65066510D01*
X114999500Y-65221153D01*
X110900499Y-65221153D01*
X110882351Y-65129917D01*
X110869737Y-65066503D01*
X110869735Y-65066498D01*
X110809397Y-64920827D01*
X110809390Y-64920814D01*
X110721789Y-64789711D01*
X110721786Y-64789707D01*
X110610292Y-64678213D01*
X110610288Y-64678210D01*
X110479185Y-64590609D01*
X110479172Y-64590602D01*
X110333501Y-64530264D01*
X110333489Y-64530261D01*
X110178845Y-64499500D01*
X110178842Y-64499500D01*
X110021158Y-64499500D01*
X110021155Y-64499500D01*
X109866510Y-64530261D01*
X109866498Y-64530264D01*
X109720827Y-64590602D01*
X109720814Y-64590609D01*
X109589711Y-64678210D01*
X109589707Y-64678213D01*
X109478213Y-64789707D01*
X109478210Y-64789711D01*
X109390609Y-64920814D01*
X109390602Y-64920827D01*
X109330264Y-65066498D01*
X109330261Y-65066510D01*
X109299500Y-65221153D01*
X109299500Y-65378844D01*
X109300097Y-65384907D01*
X109297742Y-65385138D01*
X109292449Y-65444295D01*
X109249586Y-65499472D01*
X109183696Y-65522716D01*
X109115699Y-65506648D01*
X109073957Y-65467785D01*
X109021789Y-65389711D01*
X109021786Y-65389707D01*
X108910292Y-65278213D01*
X108910288Y-65278210D01*
X108779185Y-65190609D01*
X108779172Y-65190602D01*
X108633501Y-65130264D01*
X108633489Y-65130261D01*
X108478845Y-65099500D01*
X108478842Y-65099500D01*
X108321158Y-65099500D01*
X108321155Y-65099500D01*
X108166510Y-65130261D01*
X108166498Y-65130264D01*
X108020827Y-65190602D01*
X108020814Y-65190609D01*
X107889711Y-65278210D01*
X107889707Y-65278213D01*
X107778213Y-65389707D01*
X107778210Y-65389711D01*
X107690609Y-65520814D01*
X107690602Y-65520827D01*
X107630264Y-65666498D01*
X107630261Y-65666510D01*
X107599500Y-65821153D01*
X92100500Y-65821153D01*
X92100500Y-63418905D01*
X142200000Y-63418905D01*
X142200000Y-63681094D01*
X142234220Y-63941009D01*
X142234222Y-63941020D01*
X142302075Y-64194255D01*
X142402404Y-64436471D01*
X142402409Y-64436482D01*
X142533488Y-64663516D01*
X142533494Y-64663524D01*
X142620080Y-64776365D01*
X143192116Y-64204329D01*
X143284691Y-64331748D01*
X143418252Y-64465309D01*
X143545669Y-64557882D01*
X142973633Y-65129917D01*
X142973633Y-65129918D01*
X143086475Y-65216505D01*
X143086483Y-65216511D01*
X143313517Y-65347590D01*
X143313528Y-65347595D01*
X143555744Y-65447924D01*
X143808979Y-65515777D01*
X143808990Y-65515779D01*
X144068905Y-65549999D01*
X144068920Y-65550000D01*
X144331080Y-65550000D01*
X144331094Y-65549999D01*
X144591009Y-65515779D01*
X144591020Y-65515777D01*
X144844255Y-65447924D01*
X145086471Y-65347595D01*
X145086482Y-65347590D01*
X145313516Y-65216511D01*
X145313534Y-65216499D01*
X145426365Y-65129919D01*
X145426365Y-65129917D01*
X144854330Y-64557882D01*
X144981748Y-64465309D01*
X145115309Y-64331748D01*
X145207882Y-64204330D01*
X145779917Y-64776365D01*
X145779919Y-64776365D01*
X145866499Y-64663534D01*
X145866511Y-64663516D01*
X145997590Y-64436482D01*
X145997595Y-64436471D01*
X146097924Y-64194255D01*
X146165777Y-63941020D01*
X146165779Y-63941009D01*
X146199999Y-63681094D01*
X146200000Y-63681080D01*
X146200000Y-63418919D01*
X146199999Y-63418905D01*
X146165779Y-63158990D01*
X146165777Y-63158979D01*
X146097924Y-62905744D01*
X145997595Y-62663528D01*
X145997590Y-62663517D01*
X145866511Y-62436483D01*
X145866505Y-62436475D01*
X145779918Y-62323633D01*
X145779917Y-62323633D01*
X145207882Y-62895668D01*
X145115309Y-62768252D01*
X144981748Y-62634691D01*
X144854328Y-62542116D01*
X145426365Y-61970080D01*
X145313524Y-61883494D01*
X145313516Y-61883488D01*
X145086482Y-61752409D01*
X145086471Y-61752404D01*
X144844255Y-61652075D01*
X144591020Y-61584222D01*
X144591009Y-61584220D01*
X144331094Y-61550000D01*
X144068905Y-61550000D01*
X143808990Y-61584220D01*
X143808979Y-61584222D01*
X143555744Y-61652075D01*
X143313528Y-61752404D01*
X143313517Y-61752409D01*
X143086471Y-61883496D01*
X142973633Y-61970079D01*
X142973633Y-61970080D01*
X143545669Y-62542116D01*
X143418252Y-62634691D01*
X143284691Y-62768252D01*
X143192116Y-62895669D01*
X142620080Y-62323633D01*
X142620079Y-62323633D01*
X142533496Y-62436471D01*
X142402409Y-62663517D01*
X142402404Y-62663528D01*
X142302075Y-62905744D01*
X142234222Y-63158979D01*
X142234220Y-63158990D01*
X142200000Y-63418905D01*
X92100500Y-63418905D01*
X92100500Y-50821153D01*
X113299500Y-50821153D01*
X113299500Y-50978846D01*
X113330261Y-51133489D01*
X113330264Y-51133501D01*
X113390602Y-51279172D01*
X113390609Y-51279185D01*
X113478210Y-51410288D01*
X113478213Y-51410292D01*
X113589707Y-51521786D01*
X113589711Y-51521789D01*
X113720814Y-51609390D01*
X113720827Y-51609397D01*
X113866498Y-51669735D01*
X113866503Y-51669737D01*
X114021153Y-51700499D01*
X114021156Y-51700500D01*
X114021158Y-51700500D01*
X114178844Y-51700500D01*
X114178845Y-51700499D01*
X114333497Y-51669737D01*
X114479179Y-51609394D01*
X114610289Y-51521789D01*
X114721789Y-51410289D01*
X114809394Y-51279179D01*
X114869737Y-51133497D01*
X114900500Y-50978842D01*
X114900500Y-50821158D01*
X114900500Y-50821155D01*
X114900499Y-50821153D01*
X114869738Y-50666510D01*
X114869737Y-50666503D01*
X114869735Y-50666498D01*
X114809397Y-50520827D01*
X114809390Y-50520814D01*
X114721789Y-50389711D01*
X114721786Y-50389707D01*
X114610292Y-50278213D01*
X114610288Y-50278210D01*
X114479185Y-50190609D01*
X114479172Y-50190602D01*
X114333501Y-50130264D01*
X114333489Y-50130261D01*
X114178845Y-50099500D01*
X114178842Y-50099500D01*
X114021158Y-50099500D01*
X114021155Y-50099500D01*
X113866510Y-50130261D01*
X113866498Y-50130264D01*
X113720827Y-50190602D01*
X113720814Y-50190609D01*
X113589711Y-50278210D01*
X113589707Y-50278213D01*
X113478213Y-50389707D01*
X113478210Y-50389711D01*
X113390609Y-50520814D01*
X113390602Y-50520827D01*
X113330264Y-50666498D01*
X113330261Y-50666510D01*
X113299500Y-50821153D01*
X92100500Y-50821153D01*
X92100500Y-49302135D01*
X142199500Y-49302135D01*
X142199500Y-52397870D01*
X142199501Y-52397876D01*
X142205908Y-52457483D01*
X142256202Y-52592328D01*
X142256206Y-52592335D01*
X142342452Y-52707544D01*
X142342455Y-52707547D01*
X142457664Y-52793793D01*
X142457671Y-52793797D01*
X142592517Y-52844091D01*
X142592516Y-52844091D01*
X142599444Y-52844835D01*
X142652127Y-52850500D01*
X145747872Y-52850499D01*
X145807483Y-52844091D01*
X145942331Y-52793796D01*
X146057546Y-52707546D01*
X146143796Y-52592331D01*
X146194091Y-52457483D01*
X146200500Y-52397873D01*
X146200499Y-49302128D01*
X146194091Y-49242517D01*
X146143796Y-49107669D01*
X146143795Y-49107668D01*
X146143793Y-49107664D01*
X146057547Y-48992455D01*
X146057544Y-48992452D01*
X145942335Y-48906206D01*
X145942328Y-48906202D01*
X145807482Y-48855908D01*
X145807483Y-48855908D01*
X145747883Y-48849501D01*
X145747881Y-48849500D01*
X145747873Y-48849500D01*
X145747864Y-48849500D01*
X142652129Y-48849500D01*
X142652123Y-48849501D01*
X142592516Y-48855908D01*
X142457671Y-48906202D01*
X142457664Y-48906206D01*
X142342455Y-48992452D01*
X142342452Y-48992455D01*
X142256206Y-49107664D01*
X142256202Y-49107671D01*
X142205908Y-49242517D01*
X142199501Y-49302116D01*
X142199501Y-49302123D01*
X142199500Y-49302135D01*
X92100500Y-49302135D01*
X92100500Y-45977973D01*
X118499500Y-45977973D01*
X118499500Y-46222026D01*
X118537678Y-46463072D01*
X118613097Y-46695187D01*
X118723896Y-46912642D01*
X118867339Y-47110076D01*
X118867343Y-47110081D01*
X119039918Y-47282656D01*
X119039923Y-47282660D01*
X119212136Y-47407779D01*
X119237361Y-47426106D01*
X119454815Y-47536904D01*
X119686924Y-47612321D01*
X119927973Y-47650500D01*
X119927974Y-47650500D01*
X120172026Y-47650500D01*
X120172027Y-47650500D01*
X120413076Y-47612321D01*
X120645185Y-47536904D01*
X120862639Y-47426106D01*
X121060083Y-47282655D01*
X121232655Y-47110083D01*
X121376106Y-46912639D01*
X121486904Y-46695185D01*
X121562321Y-46463076D01*
X121600500Y-46222027D01*
X121600500Y-45977973D01*
X121562321Y-45736924D01*
X121486904Y-45504815D01*
X121376106Y-45287361D01*
X121357779Y-45262136D01*
X121232660Y-45089923D01*
X121232656Y-45089918D01*
X121060081Y-44917343D01*
X121060076Y-44917339D01*
X120862642Y-44773896D01*
X120862641Y-44773895D01*
X120862639Y-44773894D01*
X120645185Y-44663096D01*
X120413076Y-44587679D01*
X120413074Y-44587678D01*
X120413072Y-44587678D01*
X120244769Y-44561021D01*
X120172027Y-44549500D01*
X119927973Y-44549500D01*
X119872093Y-44558350D01*
X119686927Y-44587678D01*
X119454812Y-44663097D01*
X119237357Y-44773896D01*
X119039923Y-44917339D01*
X119039918Y-44917343D01*
X118867343Y-45089918D01*
X118867339Y-45089923D01*
X118723896Y-45287357D01*
X118613097Y-45504812D01*
X118537678Y-45736927D01*
X118499500Y-45977973D01*
X92100500Y-45977973D01*
X92100500Y-39681947D01*
X92700000Y-39681947D01*
X92700000Y-39918052D01*
X92736934Y-40151247D01*
X92809897Y-40375802D01*
X92917087Y-40586174D01*
X92977338Y-40669104D01*
X92977340Y-40669105D01*
X93676212Y-39970233D01*
X93687482Y-40012292D01*
X93759890Y-40137708D01*
X93862292Y-40240110D01*
X93987708Y-40312518D01*
X94029765Y-40323787D01*
X93330893Y-41022658D01*
X93413828Y-41082914D01*
X93624197Y-41190102D01*
X93848752Y-41263065D01*
X93848751Y-41263065D01*
X94081948Y-41300000D01*
X94318052Y-41300000D01*
X94551247Y-41263065D01*
X94775802Y-41190102D01*
X94986163Y-41082918D01*
X94986169Y-41082914D01*
X95069104Y-41022658D01*
X95069105Y-41022658D01*
X94370233Y-40323787D01*
X94412292Y-40312518D01*
X94537708Y-40240110D01*
X94640110Y-40137708D01*
X94712518Y-40012292D01*
X94723787Y-39970234D01*
X95422658Y-40669105D01*
X95422658Y-40669104D01*
X95482914Y-40586169D01*
X95482918Y-40586163D01*
X95590102Y-40375802D01*
X95663065Y-40151247D01*
X95700000Y-39918052D01*
X95700000Y-39681947D01*
X99200000Y-39681947D01*
X99200000Y-39918052D01*
X99236934Y-40151247D01*
X99309897Y-40375802D01*
X99417087Y-40586174D01*
X99477338Y-40669104D01*
X99477340Y-40669105D01*
X100176212Y-39970233D01*
X100187482Y-40012292D01*
X100259890Y-40137708D01*
X100362292Y-40240110D01*
X100487708Y-40312518D01*
X100529765Y-40323787D01*
X99830893Y-41022658D01*
X99913828Y-41082914D01*
X100124197Y-41190102D01*
X100348752Y-41263065D01*
X100348751Y-41263065D01*
X100581948Y-41300000D01*
X100818052Y-41300000D01*
X101051247Y-41263065D01*
X101275802Y-41190102D01*
X101486163Y-41082918D01*
X101486169Y-41082914D01*
X101569104Y-41022658D01*
X101569105Y-41022658D01*
X100870233Y-40323787D01*
X100912292Y-40312518D01*
X101037708Y-40240110D01*
X101140110Y-40137708D01*
X101212518Y-40012292D01*
X101223787Y-39970234D01*
X101922658Y-40669105D01*
X101922658Y-40669104D01*
X101982914Y-40586169D01*
X101982918Y-40586163D01*
X102090102Y-40375802D01*
X102163065Y-40151247D01*
X102200000Y-39918052D01*
X102200000Y-39721153D01*
X109199500Y-39721153D01*
X109199500Y-39878846D01*
X109230261Y-40033489D01*
X109230264Y-40033501D01*
X109290602Y-40179172D01*
X109290609Y-40179185D01*
X109378210Y-40310288D01*
X109378213Y-40310292D01*
X109489707Y-40421786D01*
X109489711Y-40421789D01*
X109620814Y-40509390D01*
X109620827Y-40509397D01*
X109766498Y-40569735D01*
X109766503Y-40569737D01*
X109921153Y-40600499D01*
X109921156Y-40600500D01*
X109921158Y-40600500D01*
X110078844Y-40600500D01*
X110078845Y-40600499D01*
X110233497Y-40569737D01*
X110379179Y-40509394D01*
X110510289Y-40421789D01*
X110621789Y-40310289D01*
X110709394Y-40179179D01*
X110769737Y-40033497D01*
X110800500Y-39878842D01*
X110800500Y-39721158D01*
X110800500Y-39721155D01*
X110800499Y-39721153D01*
X110769738Y-39566510D01*
X110769737Y-39566503D01*
X110748976Y-39516380D01*
X110709397Y-39420827D01*
X110709390Y-39420814D01*
X110621789Y-39289711D01*
X110621786Y-39289707D01*
X110510292Y-39178213D01*
X110510288Y-39178210D01*
X110379185Y-39090609D01*
X110379172Y-39090602D01*
X110233501Y-39030264D01*
X110233489Y-39030261D01*
X110078845Y-38999500D01*
X110078842Y-38999500D01*
X109921158Y-38999500D01*
X109921155Y-38999500D01*
X109766510Y-39030261D01*
X109766498Y-39030264D01*
X109620827Y-39090602D01*
X109620814Y-39090609D01*
X109489711Y-39178210D01*
X109489707Y-39178213D01*
X109378213Y-39289707D01*
X109378210Y-39289711D01*
X109290609Y-39420814D01*
X109290602Y-39420827D01*
X109230264Y-39566498D01*
X109230261Y-39566510D01*
X109199500Y-39721153D01*
X102200000Y-39721153D01*
X102200000Y-39681947D01*
X102163065Y-39448752D01*
X102090102Y-39224197D01*
X101982914Y-39013828D01*
X101922658Y-38930894D01*
X101922658Y-38930893D01*
X101223787Y-39629765D01*
X101212518Y-39587708D01*
X101140110Y-39462292D01*
X101037708Y-39359890D01*
X100912292Y-39287482D01*
X100870234Y-39276212D01*
X101569105Y-38577340D01*
X101569104Y-38577338D01*
X101486174Y-38517087D01*
X101275802Y-38409897D01*
X101051247Y-38336934D01*
X101051248Y-38336934D01*
X100818052Y-38300000D01*
X100581948Y-38300000D01*
X100348752Y-38336934D01*
X100124197Y-38409897D01*
X99913830Y-38517084D01*
X99830894Y-38577340D01*
X100529766Y-39276212D01*
X100487708Y-39287482D01*
X100362292Y-39359890D01*
X100259890Y-39462292D01*
X100187482Y-39587708D01*
X100176212Y-39629766D01*
X99477340Y-38930894D01*
X99417084Y-39013830D01*
X99309897Y-39224197D01*
X99236934Y-39448752D01*
X99200000Y-39681947D01*
X95700000Y-39681947D01*
X95663065Y-39448752D01*
X95590102Y-39224197D01*
X95482914Y-39013828D01*
X95422658Y-38930894D01*
X95422658Y-38930893D01*
X94723787Y-39629765D01*
X94712518Y-39587708D01*
X94640110Y-39462292D01*
X94537708Y-39359890D01*
X94412292Y-39287482D01*
X94370234Y-39276212D01*
X95069105Y-38577340D01*
X95069104Y-38577339D01*
X94986174Y-38517087D01*
X94775802Y-38409897D01*
X94551247Y-38336934D01*
X94551248Y-38336934D01*
X94318052Y-38300000D01*
X94081948Y-38300000D01*
X93848752Y-38336934D01*
X93624197Y-38409897D01*
X93413830Y-38517084D01*
X93330894Y-38577340D01*
X94029766Y-39276212D01*
X93987708Y-39287482D01*
X93862292Y-39359890D01*
X93759890Y-39462292D01*
X93687482Y-39587708D01*
X93676212Y-39629766D01*
X92977340Y-38930894D01*
X92917084Y-39013830D01*
X92809897Y-39224197D01*
X92736934Y-39448752D01*
X92700000Y-39681947D01*
X92100500Y-39681947D01*
X92100500Y-37744632D01*
X115595300Y-37744632D01*
X115595300Y-37915367D01*
X115622009Y-38084002D01*
X115622009Y-38084005D01*
X115674767Y-38246377D01*
X115674769Y-38246380D01*
X115752280Y-38398506D01*
X115753326Y-38400212D01*
X115753525Y-38400948D01*
X115754493Y-38402848D01*
X115754093Y-38403051D01*
X115771568Y-38467659D01*
X115754151Y-38526977D01*
X115754493Y-38527152D01*
X115753565Y-38528972D01*
X115753326Y-38529788D01*
X115752280Y-38531493D01*
X115674769Y-38683619D01*
X115674767Y-38683622D01*
X115622009Y-38845994D01*
X115622009Y-38845997D01*
X115595300Y-39014632D01*
X115595300Y-39185367D01*
X115622009Y-39354002D01*
X115622009Y-39354005D01*
X115674767Y-39516377D01*
X115674769Y-39516380D01*
X115752281Y-39668507D01*
X115852637Y-39806635D01*
X115973365Y-39927363D01*
X116111493Y-40027719D01*
X116263620Y-40105231D01*
X116263622Y-40105232D01*
X116425995Y-40157990D01*
X116425996Y-40157990D01*
X116425999Y-40157991D01*
X116594632Y-40184700D01*
X116594633Y-40184700D01*
X116765367Y-40184700D01*
X116765368Y-40184700D01*
X116934001Y-40157991D01*
X116934004Y-40157990D01*
X116934005Y-40157990D01*
X117096377Y-40105232D01*
X117096377Y-40105231D01*
X117096380Y-40105231D01*
X117248507Y-40027719D01*
X117248523Y-40027706D01*
X117250199Y-40026681D01*
X117250934Y-40026481D01*
X117252848Y-40025507D01*
X117253052Y-40025908D01*
X117317643Y-40008430D01*
X117376976Y-40025851D01*
X117377152Y-40025507D01*
X117378987Y-40026442D01*
X117379801Y-40026681D01*
X117381481Y-40027710D01*
X117381493Y-40027719D01*
X117533620Y-40105231D01*
X117533622Y-40105232D01*
X117695995Y-40157990D01*
X117695996Y-40157990D01*
X117695999Y-40157991D01*
X117864632Y-40184700D01*
X117864633Y-40184700D01*
X118035367Y-40184700D01*
X118035368Y-40184700D01*
X118204001Y-40157991D01*
X118204004Y-40157990D01*
X118204005Y-40157990D01*
X118366377Y-40105232D01*
X118366377Y-40105231D01*
X118366380Y-40105231D01*
X118518507Y-40027719D01*
X118518523Y-40027706D01*
X118520199Y-40026681D01*
X118520934Y-40026481D01*
X118522848Y-40025507D01*
X118523052Y-40025908D01*
X118587643Y-40008430D01*
X118646976Y-40025851D01*
X118647152Y-40025507D01*
X118648987Y-40026442D01*
X118649801Y-40026681D01*
X118651481Y-40027710D01*
X118651493Y-40027719D01*
X118803620Y-40105231D01*
X118803622Y-40105232D01*
X118965995Y-40157990D01*
X118965996Y-40157990D01*
X118965999Y-40157991D01*
X119134632Y-40184700D01*
X119134633Y-40184700D01*
X119305367Y-40184700D01*
X119305368Y-40184700D01*
X119474001Y-40157991D01*
X119474004Y-40157990D01*
X119474005Y-40157990D01*
X119636377Y-40105232D01*
X119636377Y-40105231D01*
X119636380Y-40105231D01*
X119788507Y-40027719D01*
X119788523Y-40027706D01*
X119790199Y-40026681D01*
X119790934Y-40026481D01*
X119792848Y-40025507D01*
X119793052Y-40025908D01*
X119857643Y-40008430D01*
X119916976Y-40025851D01*
X119917152Y-40025507D01*
X119918987Y-40026442D01*
X119919801Y-40026681D01*
X119921481Y-40027710D01*
X119921493Y-40027719D01*
X120073620Y-40105231D01*
X120073622Y-40105232D01*
X120235995Y-40157990D01*
X120235996Y-40157990D01*
X120235999Y-40157991D01*
X120404632Y-40184700D01*
X120404633Y-40184700D01*
X120575367Y-40184700D01*
X120575368Y-40184700D01*
X120744001Y-40157991D01*
X120744004Y-40157990D01*
X120744005Y-40157990D01*
X120906377Y-40105232D01*
X120906377Y-40105231D01*
X120906380Y-40105231D01*
X121058507Y-40027719D01*
X121058523Y-40027706D01*
X121060199Y-40026681D01*
X121060934Y-40026481D01*
X121062848Y-40025507D01*
X121063052Y-40025908D01*
X121127643Y-40008430D01*
X121186976Y-40025851D01*
X121187152Y-40025507D01*
X121188987Y-40026442D01*
X121189801Y-40026681D01*
X121191481Y-40027710D01*
X121191493Y-40027719D01*
X121343620Y-40105231D01*
X121343622Y-40105232D01*
X121505995Y-40157990D01*
X121505996Y-40157990D01*
X121505999Y-40157991D01*
X121674632Y-40184700D01*
X121674633Y-40184700D01*
X121845367Y-40184700D01*
X121845368Y-40184700D01*
X122014001Y-40157991D01*
X122014004Y-40157990D01*
X122014005Y-40157990D01*
X122176377Y-40105232D01*
X122176377Y-40105231D01*
X122176380Y-40105231D01*
X122328507Y-40027719D01*
X122328523Y-40027706D01*
X122330199Y-40026681D01*
X122330934Y-40026481D01*
X122332848Y-40025507D01*
X122333052Y-40025908D01*
X122397643Y-40008430D01*
X122456976Y-40025851D01*
X122457152Y-40025507D01*
X122458987Y-40026442D01*
X122459801Y-40026681D01*
X122461481Y-40027710D01*
X122461493Y-40027719D01*
X122613620Y-40105231D01*
X122613622Y-40105232D01*
X122775995Y-40157990D01*
X122775996Y-40157990D01*
X122775999Y-40157991D01*
X122944632Y-40184700D01*
X122944633Y-40184700D01*
X123115367Y-40184700D01*
X123115368Y-40184700D01*
X123284001Y-40157991D01*
X123284004Y-40157990D01*
X123284005Y-40157990D01*
X123446377Y-40105232D01*
X123446377Y-40105231D01*
X123446380Y-40105231D01*
X123598507Y-40027719D01*
X123598523Y-40027706D01*
X123600199Y-40026681D01*
X123600934Y-40026481D01*
X123602848Y-40025507D01*
X123603052Y-40025908D01*
X123667643Y-40008430D01*
X123726976Y-40025851D01*
X123727152Y-40025507D01*
X123728987Y-40026442D01*
X123729801Y-40026681D01*
X123731481Y-40027710D01*
X123731493Y-40027719D01*
X123883620Y-40105231D01*
X123883622Y-40105232D01*
X124045995Y-40157990D01*
X124045996Y-40157990D01*
X124045999Y-40157991D01*
X124214632Y-40184700D01*
X124214633Y-40184700D01*
X124385367Y-40184700D01*
X124385368Y-40184700D01*
X124554001Y-40157991D01*
X124554004Y-40157990D01*
X124554005Y-40157990D01*
X124716377Y-40105232D01*
X124716377Y-40105231D01*
X124716380Y-40105231D01*
X124868507Y-40027719D01*
X125006635Y-39927363D01*
X125127363Y-39806635D01*
X125227719Y-39668507D01*
X125305231Y-39516380D01*
X125357991Y-39354001D01*
X125384700Y-39185368D01*
X125384700Y-39014632D01*
X125357991Y-38845999D01*
X125357990Y-38845997D01*
X125348272Y-38816089D01*
X125324488Y-38742890D01*
X125322493Y-38673052D01*
X125326238Y-38661240D01*
X125327992Y-38656535D01*
X125327996Y-38656531D01*
X125378291Y-38521683D01*
X125384700Y-38462073D01*
X125384699Y-37197928D01*
X125378291Y-37138317D01*
X125372714Y-37123365D01*
X125327997Y-37003471D01*
X125327993Y-37003464D01*
X125241747Y-36888255D01*
X125241744Y-36888252D01*
X125126535Y-36802006D01*
X125126528Y-36802002D01*
X124991682Y-36751708D01*
X124991683Y-36751708D01*
X124932083Y-36745301D01*
X124932081Y-36745300D01*
X124932073Y-36745300D01*
X124932064Y-36745300D01*
X123667929Y-36745300D01*
X123667923Y-36745301D01*
X123608315Y-36751709D01*
X123468757Y-36803760D01*
X123399066Y-36808744D01*
X123387108Y-36805509D01*
X123284003Y-36772009D01*
X123284004Y-36772009D01*
X123155826Y-36751708D01*
X123115368Y-36745300D01*
X122944632Y-36745300D01*
X122888421Y-36754203D01*
X122775997Y-36772009D01*
X122775994Y-36772009D01*
X122613622Y-36824767D01*
X122613619Y-36824768D01*
X122461485Y-36902285D01*
X122459299Y-36903625D01*
X122458356Y-36903879D01*
X122457153Y-36904493D01*
X122457024Y-36904240D01*
X122391851Y-36921862D01*
X122332790Y-36904519D01*
X122332586Y-36904921D01*
X122330447Y-36903831D01*
X122329738Y-36903623D01*
X122328253Y-36902713D01*
X122176191Y-36825233D01*
X122013884Y-36772496D01*
X121845333Y-36745800D01*
X121674667Y-36745800D01*
X121506115Y-36772496D01*
X121343808Y-36825233D01*
X121191749Y-36902711D01*
X121189781Y-36903918D01*
X121188931Y-36904147D01*
X121187414Y-36904921D01*
X121187251Y-36904601D01*
X121122333Y-36922156D01*
X121062722Y-36904653D01*
X121062586Y-36904921D01*
X121061159Y-36904194D01*
X121060219Y-36903918D01*
X121058250Y-36902711D01*
X120906191Y-36825233D01*
X120743884Y-36772496D01*
X120575333Y-36745800D01*
X120404667Y-36745800D01*
X120236115Y-36772496D01*
X120073808Y-36825233D01*
X119921746Y-36902713D01*
X119920262Y-36903623D01*
X119919621Y-36903796D01*
X119917414Y-36904921D01*
X119917177Y-36904457D01*
X119852815Y-36921862D01*
X119792954Y-36904284D01*
X119792848Y-36904493D01*
X119791738Y-36903927D01*
X119790694Y-36903621D01*
X119788509Y-36902282D01*
X119636380Y-36824769D01*
X119636377Y-36824767D01*
X119474004Y-36772009D01*
X119345826Y-36751708D01*
X119305368Y-36745300D01*
X119134632Y-36745300D01*
X119078421Y-36754203D01*
X118965997Y-36772009D01*
X118965994Y-36772009D01*
X118803622Y-36824767D01*
X118803619Y-36824768D01*
X118651485Y-36902285D01*
X118649299Y-36903625D01*
X118648356Y-36903879D01*
X118647153Y-36904493D01*
X118647024Y-36904240D01*
X118581851Y-36921862D01*
X118522790Y-36904519D01*
X118522586Y-36904921D01*
X118520447Y-36903831D01*
X118519738Y-36903623D01*
X118518253Y-36902713D01*
X118366191Y-36825233D01*
X118203884Y-36772496D01*
X118035333Y-36745800D01*
X117864667Y-36745800D01*
X117696115Y-36772496D01*
X117533808Y-36825233D01*
X117381746Y-36902713D01*
X117380262Y-36903623D01*
X117379621Y-36903796D01*
X117377414Y-36904921D01*
X117377177Y-36904457D01*
X117312815Y-36921862D01*
X117252954Y-36904284D01*
X117252848Y-36904493D01*
X117251738Y-36903927D01*
X117250694Y-36903621D01*
X117248509Y-36902282D01*
X117096380Y-36824769D01*
X117096377Y-36824767D01*
X116934004Y-36772009D01*
X116805826Y-36751708D01*
X116765368Y-36745300D01*
X116594632Y-36745300D01*
X116538421Y-36754203D01*
X116425997Y-36772009D01*
X116425994Y-36772009D01*
X116263622Y-36824767D01*
X116263619Y-36824769D01*
X116111492Y-36902281D01*
X116084137Y-36922156D01*
X115973365Y-37002637D01*
X115973363Y-37002639D01*
X115973362Y-37002639D01*
X115852639Y-37123362D01*
X115852639Y-37123363D01*
X115852637Y-37123365D01*
X115841774Y-37138317D01*
X115752281Y-37261492D01*
X115674769Y-37413619D01*
X115674767Y-37413622D01*
X115622009Y-37575994D01*
X115622009Y-37575997D01*
X115595300Y-37744632D01*
X92100500Y-37744632D01*
X92100500Y-33724500D01*
X92120185Y-33657461D01*
X92172989Y-33611706D01*
X92224500Y-33600500D01*
X93791896Y-33600500D01*
X93858935Y-33620185D01*
G37*
%TD.AperFunction*%
%TD*%
M02*
