%TF.GenerationSoftware,KiCad,Pcbnew,9.0.0*%
%TF.CreationDate,2025-03-21T22:40:37-06:00*%
%TF.ProjectId,pcb_desgin,7063625f-6465-4736-9769-6e2e6b696361,rev?*%
%TF.SameCoordinates,Original*%
%TF.FileFunction,Soldermask,Top*%
%TF.FilePolarity,Negative*%
%FSLAX46Y46*%
G04 Gerber Fmt 4.6, Leading zero omitted, Abs format (unit mm)*
G04 Created by KiCad (PCBNEW 9.0.0) date 2025-03-21 22:40:37*
%MOMM*%
%LPD*%
G01*
G04 APERTURE LIST*
G04 Aperture macros list*
%AMRoundRect*
0 Rectangle with rounded corners*
0 $1 Rounding radius*
0 $2 $3 $4 $5 $6 $7 $8 $9 X,Y pos of 4 corners*
0 Add a 4 corners polygon primitive as box body*
4,1,4,$2,$3,$4,$5,$6,$7,$8,$9,$2,$3,0*
0 Add four circle primitives for the rounded corners*
1,1,$1+$1,$2,$3*
1,1,$1+$1,$4,$5*
1,1,$1+$1,$6,$7*
1,1,$1+$1,$8,$9*
0 Add four rect primitives between the rounded corners*
20,1,$1+$1,$2,$3,$4,$5,0*
20,1,$1+$1,$4,$5,$6,$7,0*
20,1,$1+$1,$6,$7,$8,$9,0*
20,1,$1+$1,$8,$9,$2,$3,0*%
G04 Aperture macros list end*
%ADD10C,0.010000*%
%ADD11RoundRect,0.102000X-0.650000X0.350000X-0.650000X-0.350000X0.650000X-0.350000X0.650000X0.350000X0*%
%ADD12R,1.800000X1.000000*%
%ADD13RoundRect,0.200000X-0.275000X0.200000X-0.275000X-0.200000X0.275000X-0.200000X0.275000X0.200000X0*%
%ADD14C,2.000000*%
%ADD15RoundRect,0.225000X-0.250000X0.225000X-0.250000X-0.225000X0.250000X-0.225000X0.250000X0.225000X0*%
%ADD16RoundRect,0.218750X0.256250X-0.218750X0.256250X0.218750X-0.256250X0.218750X-0.256250X-0.218750X0*%
%ADD17R,1.700000X1.700000*%
%ADD18O,1.700000X1.700000*%
%ADD19RoundRect,0.200000X0.275000X-0.200000X0.275000X0.200000X-0.275000X0.200000X-0.275000X-0.200000X0*%
%ADD20RoundRect,0.225000X0.250000X-0.225000X0.250000X0.225000X-0.250000X0.225000X-0.250000X-0.225000X0*%
%ADD21RoundRect,0.200000X0.200000X0.275000X-0.200000X0.275000X-0.200000X-0.275000X0.200000X-0.275000X0*%
%ADD22RoundRect,0.225000X-0.225000X-0.250000X0.225000X-0.250000X0.225000X0.250000X-0.225000X0.250000X0*%
%ADD23R,0.508000X1.473200*%
%ADD24R,1.473200X0.508000*%
%ADD25RoundRect,0.218750X0.218750X0.256250X-0.218750X0.256250X-0.218750X-0.256250X0.218750X-0.256250X0*%
%ADD26RoundRect,0.225000X0.225000X0.250000X-0.225000X0.250000X-0.225000X-0.250000X0.225000X-0.250000X0*%
%ADD27R,0.400000X1.350000*%
%ADD28O,0.890000X1.550000*%
%ADD29R,1.200000X1.550000*%
%ADD30O,1.250000X0.950000*%
%ADD31R,1.500000X1.550000*%
%ADD32RoundRect,0.102000X-0.350000X-0.650000X0.350000X-0.650000X0.350000X0.650000X-0.350000X0.650000X0*%
%ADD33R,1.168400X1.168400*%
%ADD34C,1.168400*%
%ADD35C,2.600000*%
%ADD36R,3.000000X3.000000*%
%ADD37C,3.000000*%
G04 APERTURE END LIST*
D10*
%TO.C,U2*%
X145650000Y-70925000D02*
X142525000Y-70925000D01*
X142340000Y-70150000D01*
X140350000Y-70150000D01*
X140350000Y-69250000D01*
X142340000Y-69250000D01*
X142525000Y-68475000D01*
X145650000Y-68475000D01*
X145650000Y-70925000D01*
G36*
X145650000Y-70925000D02*
G01*
X142525000Y-70925000D01*
X142340000Y-70150000D01*
X140350000Y-70150000D01*
X140350000Y-69250000D01*
X142340000Y-69250000D01*
X142525000Y-68475000D01*
X145650000Y-68475000D01*
X145650000Y-70925000D01*
G37*
%TO.C,U1*%
X138025000Y-53262500D02*
X137250000Y-53447500D01*
X137250000Y-55437500D01*
X136350000Y-55437500D01*
X136350000Y-53447500D01*
X135575000Y-53262500D01*
X135575000Y-50137500D01*
X138025000Y-50137500D01*
X138025000Y-53262500D01*
G36*
X138025000Y-53262500D02*
G01*
X137250000Y-53447500D01*
X137250000Y-55437500D01*
X136350000Y-55437500D01*
X136350000Y-53447500D01*
X135575000Y-53262500D01*
X135575000Y-50137500D01*
X138025000Y-50137500D01*
X138025000Y-53262500D01*
G37*
%TD*%
D11*
%TO.C,U2*%
X141100000Y-68200000D03*
X141100000Y-71200000D03*
%TD*%
D12*
%TO.C,Y1*%
X121100000Y-54300000D03*
X121100000Y-51800000D03*
%TD*%
D13*
%TO.C,R8*%
X106400000Y-64150000D03*
X106400000Y-65800000D03*
%TD*%
D14*
%TO.C,SW1*%
X94200000Y-35300000D03*
X100700000Y-35300000D03*
X94200000Y-39800000D03*
X100700000Y-39800000D03*
%TD*%
D15*
%TO.C,C5*%
X106500000Y-38850000D03*
X106500000Y-40400000D03*
%TD*%
D16*
%TO.C,D1*%
X141000000Y-51987500D03*
X141000000Y-50412500D03*
%TD*%
D15*
%TO.C,C6*%
X131300000Y-77750000D03*
X131300000Y-79300000D03*
%TD*%
D17*
%TO.C,J4*%
X114540000Y-82700000D03*
D18*
X117080000Y-82700000D03*
X119620000Y-82700000D03*
X122160000Y-82700000D03*
X124700000Y-82700000D03*
%TD*%
D19*
%TO.C,R1*%
X141100000Y-55237500D03*
X141100000Y-53587500D03*
%TD*%
D20*
%TO.C,C3*%
X138200000Y-70225000D03*
X138200000Y-68675000D03*
%TD*%
D17*
%TO.C,J3*%
X94400000Y-74500000D03*
D18*
X96940000Y-74500000D03*
X99480000Y-74500000D03*
X102020000Y-74500000D03*
%TD*%
D21*
%TO.C,R9*%
X123950000Y-58800000D03*
X122300000Y-58800000D03*
%TD*%
D13*
%TO.C,R6*%
X111100000Y-68850000D03*
X111100000Y-70500000D03*
%TD*%
D22*
%TO.C,C4*%
X142850000Y-77600000D03*
X144400000Y-77600000D03*
%TD*%
D23*
%TO.C,U3*%
X115814799Y-54585199D03*
X115014801Y-54585199D03*
X114214800Y-54585199D03*
X113414799Y-54585199D03*
X112614801Y-54585199D03*
X111814800Y-54585199D03*
X111014801Y-54585199D03*
X110214801Y-54585199D03*
D24*
X108900000Y-55900000D03*
X108900000Y-56699998D03*
X108900000Y-57499999D03*
X108900000Y-58300000D03*
X108900000Y-59099998D03*
X108900000Y-59899999D03*
X108900000Y-60699998D03*
X108900000Y-61499998D03*
D23*
X110214801Y-62814799D03*
X111014799Y-62814799D03*
X111814800Y-62814799D03*
X112614801Y-62814799D03*
X113414799Y-62814799D03*
X114214800Y-62814799D03*
X115014799Y-62814799D03*
X115814799Y-62814799D03*
D24*
X117129600Y-61499998D03*
X117129600Y-60700000D03*
X117129600Y-59899999D03*
X117129600Y-59099998D03*
X117129600Y-58300000D03*
X117129600Y-57499999D03*
X117129600Y-56700000D03*
X117129600Y-55900000D03*
%TD*%
D19*
%TO.C,R4*%
X138200000Y-76825000D03*
X138200000Y-75175000D03*
%TD*%
D21*
%TO.C,R3*%
X146212500Y-75760000D03*
X144562500Y-75760000D03*
%TD*%
D13*
%TO.C,R7*%
X114100000Y-68850000D03*
X114100000Y-70500000D03*
%TD*%
D25*
%TO.C,D3*%
X142287500Y-75800000D03*
X140712500Y-75800000D03*
%TD*%
D26*
%TO.C,C9*%
X125900000Y-54800000D03*
X124350000Y-54800000D03*
%TD*%
D25*
%TO.C,D5*%
X120700000Y-58800000D03*
X119125000Y-58800000D03*
%TD*%
D27*
%TO.C,J2*%
X142500000Y-79600000D03*
X143150000Y-79600000D03*
X143800000Y-79600000D03*
X144450000Y-79600000D03*
X145100000Y-79600000D03*
D28*
X140300000Y-82300000D03*
D29*
X140900000Y-82300000D03*
D30*
X141300000Y-79600000D03*
D31*
X142800000Y-82300000D03*
X144800000Y-82300000D03*
D30*
X146300000Y-79600000D03*
D29*
X146700000Y-82300000D03*
D28*
X147300000Y-82300000D03*
%TD*%
D19*
%TO.C,R5*%
X136700000Y-83100000D03*
X136700000Y-81450000D03*
%TD*%
D16*
%TO.C,D4*%
X138200000Y-73425000D03*
X138200000Y-71850000D03*
%TD*%
D32*
%TO.C,U1*%
X135300000Y-54687500D03*
X138300000Y-54687500D03*
%TD*%
D19*
%TO.C,R2*%
X141200000Y-61775000D03*
X141200000Y-60125000D03*
%TD*%
D33*
%TO.C,J1*%
X124300000Y-37830000D03*
D34*
X124300000Y-39100000D03*
X123030000Y-37830000D03*
X123030000Y-39100000D03*
X121760000Y-37830000D03*
X121760000Y-39100000D03*
X120490000Y-37830000D03*
X120490000Y-39100000D03*
X119220000Y-37830000D03*
X119220000Y-39100000D03*
X117950000Y-37830000D03*
X117950000Y-39100000D03*
X116680000Y-37830000D03*
X116680000Y-39100000D03*
%TD*%
D22*
%TO.C,C2*%
X136450000Y-57687500D03*
X138000000Y-57687500D03*
%TD*%
D20*
%TO.C,C8*%
X112625000Y-75100000D03*
X112625000Y-73550000D03*
%TD*%
D17*
%TO.C,J5*%
X128600000Y-82700000D03*
D18*
X131140000Y-82700000D03*
X133680000Y-82700000D03*
%TD*%
D20*
%TO.C,C1*%
X146000000Y-56950000D03*
X146000000Y-55400000D03*
%TD*%
D26*
%TO.C,C10*%
X125900000Y-51800000D03*
X124350000Y-51800000D03*
%TD*%
D16*
%TO.C,D2*%
X141100000Y-58575000D03*
X141100000Y-57000000D03*
%TD*%
D20*
%TO.C,C7*%
X138500000Y-83075000D03*
X138500000Y-81525000D03*
%TD*%
D35*
%TO.C,BT1*%
X105300000Y-68300000D03*
X120050000Y-46100000D03*
X133300000Y-68300000D03*
D36*
X144200000Y-50850000D03*
D37*
X144200000Y-63550000D03*
%TD*%
M02*
