M48
; DRILL file {KiCad 9.0.0} date 2025-03-21T22:40:27-0600
; FORMAT={-:-/ absolute / inch / decimal}
; #@! TF.CreationDate,2025-03-21T22:40:27-06:00
; #@! TF.GenerationSoftware,Kicad,Pcbnew,9.0.0
; #@! TF.FileFunction,Plated,1,4,PTH
FMAT,2
INCH
; #@! TA.AperFunction,Plated,PTH,ViaDrill
T1C0.0118
; #@! TA.AperFunction,Plated,PTH,ComponentDrill
T2C0.0197
; #@! TA.AperFunction,Plated,PTH,ComponentDrill
T3C0.0217
; #@! TA.AperFunction,Plated,PTH,ComponentDrill
T4C0.0300
; #@! TA.AperFunction,Plated,PTH,ComponentDrill
T5C0.0394
; #@! TA.AperFunction,Plated,PTH,ComponentDrill
T6C0.0433
; #@! TA.AperFunction,Plated,PTH,ComponentDrill
T7C0.0945
%
G90
G05
T1
X4.2559Y-2.811
X4.2677Y-2.5945
X4.3307Y-1.5669
X4.3346Y-2.5709
X4.3622Y-2.9685
X4.4134Y-2.0039
X4.4252Y-2.7096
X4.4311Y-2.6339
X4.4331Y-2.7776
X4.4921Y-2.0039
X4.5591Y-2.5709
X4.6425Y-1.378
X4.6486Y-2.7953
X4.7488Y-1.378
X4.8118Y-1.378
X4.878Y-1.378
X4.9606Y-2.0945
X5.1732Y-2.9843
X5.3701Y-2.315
X5.3701Y-3.0315
X5.4961Y-2.6417
X5.815Y-2.9803
T4
X4.5937Y-1.4894
X4.5937Y-1.5394
X4.6437Y-1.4894
X4.6437Y-1.5394
X4.6937Y-1.4894
X4.6937Y-1.5394
X4.7437Y-1.4894
X4.7437Y-1.5394
X4.7937Y-1.4894
X4.7937Y-1.5394
X4.8437Y-1.4894
X4.8437Y-1.5394
X4.8937Y-1.4894
X4.8937Y-1.5394
T5
X3.7165Y-2.9331
X3.8165Y-2.9331
X3.9165Y-2.9331
X4.0165Y-2.9331
X4.5094Y-3.2559
X4.6094Y-3.2559
X4.7094Y-3.2559
X4.8094Y-3.2559
X4.9094Y-3.2559
X5.063Y-3.2559
X5.163Y-3.2559
X5.263Y-3.2559
T6
X3.7087Y-1.3898
X3.7087Y-1.5669
X3.9646Y-1.3898
X3.9646Y-1.5669
T7
X5.6772Y-2.002
X5.6772Y-2.502
T2
G00X5.5236Y-3.2274
M15
G01X5.5236Y-3.253
M16
G05
G00X5.7992Y-3.2274
M15
G01X5.7992Y-3.253
M16
G05
T3
G00X5.5571Y-3.1339
M15
G01X5.5689Y-3.1339
M16
G05
G00X5.7539Y-3.1339
M15
G01X5.7657Y-3.1339
M16
G05
M30
